<svg width="228" height="228" viewBox="0 0 228 228" fill="none" xmlns="http://www.w3.org/2000/svg">
<g id="globalgoals_icons_color_goal_13">
<rect id="gg-base" y="0.852539" width="227.07" height="227.07" fill="#3F7E44"/>
<path id="Path" d="M28.6689 19.8984V65.6621H20.9735V30.632H20.9054L15.5079 36.2339H15.4375V28.2001L22.5244 19.8984H28.6689Z" fill="white"/>
<path id="Path_2" d="M54.0452 29.8244V33.8049C54.0452 37.6492 51.9539 40.2151 48.7817 41.2301C52.6283 42.1066 54.4584 44.8064 54.4584 48.9913V55.7421C54.4584 62.0842 51.0842 66.2032 43.3207 66.2032C35.489 66.2032 32.7188 61.7481 32.7188 54.7952V48.7892H39.7398V55.3493C39.7398 58.0492 40.6821 59.7999 43.3184 59.7999C45.6776 59.7999 46.7562 58.115 46.7562 55.6831V48.1148C46.7562 45.6829 45.6776 44.4022 42.98 44.4022H39.7398V38.5302H42.644C45.1418 38.5302 46.7562 37.245 46.7562 34.8176V29.8902C46.7562 27.3924 45.882 25.7734 43.4524 25.7734C41.0227 25.7734 40.1462 27.3924 40.1462 30.2263V34.8835H33.1161V30.8257C33.1161 24.0749 35.8841 19.3496 43.8497 19.3496C50.9389 19.3496 54.0429 23.3347 54.0429 29.8153" fill="white"/>
<path id="Shape" fill-rule="evenodd" clip-rule="evenodd" d="M196.889 142.998C190.905 134.617 163.843 101.115 113.534 101.115C63.2239 101.115 36.1753 134.617 30.1829 142.998C30.0285 143.216 29.8867 143.421 29.7594 143.604L29.7588 143.605L29.7587 143.605C29.6766 143.723 29.6006 143.833 29.5312 143.932C29.6714 144.145 29.8386 144.383 30.0283 144.653L30.0285 144.654L30.1829 144.874C36.1753 153.269 63.2284 186.773 113.534 186.773C163.839 186.773 190.905 153.269 196.889 144.883C197.15 144.52 197.366 144.202 197.536 143.941C197.366 143.677 197.151 143.366 196.889 143.007V142.998ZM87.2933 119.914L87.2934 119.914C87.4564 119.705 87.576 119.552 87.6196 119.495C87.9818 119.028 88.6762 118.908 89.2047 118.817L89.3158 118.797C89.8539 118.702 90.5624 118.995 90.6487 119.397C90.735 119.799 90.4421 121.357 90.1787 121.624C89.4407 122.39 87.5197 123.471 86.4615 123.3C85.6418 123.175 85.3262 122.542 85.4783 122.299C85.8235 121.793 86.7764 120.575 87.2933 119.914ZM83.7892 125.744L83.7891 125.744C83.7572 125.781 83.719 125.824 83.6791 125.872L83.6768 125.879C82.6613 127.543 81.7878 129.29 81.0655 131.101C81.3478 131.238 81.6695 131.271 81.9738 131.194C82.7802 131.014 84.0026 129.763 85.075 128.665C85.4762 128.254 85.8564 127.865 86.1859 127.561C86.3256 127.427 86.6678 127.224 87.0605 126.991C87.8677 126.513 88.8881 125.907 88.7995 125.518C88.6678 124.939 87.4939 124.512 86.6242 124.648L86.4654 124.672C85.6071 124.804 84.4567 124.981 83.8607 125.661C83.8461 125.68 83.8208 125.708 83.7893 125.744L83.7892 125.744ZM102.508 164.499C101.837 167.14 101.055 168.115 100.385 168.952L100.356 168.988C99.679 169.833 97.1767 170.934 95.5872 170.816C93.9977 170.698 93.7706 166.445 93.7706 164.256C93.7706 164.041 93.6836 164.069 93.5463 164.114C93.2021 164.227 92.5418 164.442 92.1425 161.188C91.9454 159.577 91.285 159.841 90.7118 160.07C90.2485 160.255 89.8421 160.418 89.7832 159.549C89.6982 158.293 89.2779 158.012 88.7278 157.643C88.4262 157.441 88.0854 157.213 87.7396 156.783C87.0085 155.875 86.1399 156.393 85.1758 156.968C84.8523 157.161 84.518 157.36 84.1746 157.514C83.8083 157.679 83.5809 157.821 83.4072 157.93C82.9329 158.227 82.8593 158.273 81.4498 157.828C81.4187 157.818 81.3973 157.809 81.3741 157.799C81.36 157.793 81.3452 157.787 81.3272 157.78C79.4954 153.463 78.5517 148.822 78.5524 144.133C78.5524 142.95 78.6159 141.785 78.7272 140.636C78.7887 140.521 78.8609 140.411 78.9429 140.309C80.7958 138.116 80.7595 137.602 80.7595 137.602L82.8031 136.894C82.8031 136.894 86.0775 137.398 88.5434 138.327C88.9459 138.477 89.3938 138.666 89.8679 138.865C91.7876 139.673 94.1362 140.661 95.6348 140.053C96.9814 139.498 98.0327 138.763 97.9055 137.643C97.7557 136.238 96.6476 135.904 95.3079 136.851C95.0734 137.017 94.7121 136.546 94.3087 136.02C93.8641 135.439 93.3683 134.793 92.935 134.859C92.505 134.926 92.7989 135.707 93.0814 136.458C93.342 137.151 93.593 137.818 93.2574 137.875C92.6011 137.986 91.315 135.341 90.9601 134.612L90.9595 134.61L90.959 134.609L90.9335 134.557L90.9027 134.494C90.662 134.006 89.5743 132.8 88.5957 133.722C87.2091 135.04 85.2418 135.419 83.8937 135.679C83.2328 135.807 82.7207 135.905 82.4988 136.072C80.4552 137.607 79.9057 135.566 79.9511 134.324C80.0329 134.04 80.1169 133.754 80.2077 133.472C80.8776 132.734 83.2822 132.489 84.1088 133.038C84.9733 133.615 85.6033 132.954 85.9674 132.572L86.0207 132.516C86.3749 132.148 86.2478 131.574 86.0207 131.092C85.7936 130.611 86.4748 130.248 86.9426 130.123C87.2667 130.036 88.1173 129.484 88.817 129.03L88.8171 129.03C89.1272 128.829 89.4076 128.647 89.5993 128.533C90.2238 128.163 93.4595 127.777 94.9196 128.504C96.1055 129.13 97.5687 128.835 98.4187 127.798C99.1332 126.946 99.9936 126.229 100.96 125.679C101.468 125.452 99.7085 123.801 98.2643 125.59C96.8201 127.38 96.0776 127.534 95.3964 127.534C94.7152 127.534 90.6688 126.526 90.1738 125.248C89.6788 123.969 91.4409 123.013 92.9327 122.296C93.9187 121.821 96.0385 121.668 97.6642 121.55C98.4982 121.489 99.2022 121.438 99.5563 121.358C100.009 121.259 100.489 121.132 100.977 121.003C102.777 120.528 104.687 120.024 105.762 120.756C106.377 121.175 105.284 121.727 104.107 122.323C102.666 123.052 101.097 123.846 102.377 124.537C102.991 124.875 105.218 123.52 106.846 122.529C107.406 122.188 107.895 121.89 108.224 121.719C109.729 120.943 109.001 120.427 107.991 119.711C106.98 118.993 105.686 118.076 106.071 116.496C106.817 113.435 100.928 114.014 96.6682 114.433L96.6681 114.433C95.9603 114.503 95.2975 114.568 94.7175 114.612C104.265 108.504 116.177 107.392 126.69 111.627C137.203 115.862 145.018 124.92 147.666 135.94C147.686 136.487 147.629 137.033 147.495 137.564C147.177 138.826 144.771 139.912 143.392 137.879C143.038 137.366 141.535 135.947 141.576 138.374C141.592 139.362 141.986 139.989 142.297 140.483C142.75 141.205 143.026 141.645 141.696 142.509C140.107 143.543 139.44 143.667 138.818 143.782C138.562 143.83 138.314 143.876 138.013 143.983C136.977 144.351 135.969 146.851 136.226 148.188C136.308 148.619 136.694 149.289 137.101 149.996C137.958 151.485 138.908 153.134 137.3 153.03C136.744 152.986 132.556 150.128 131.866 148.288C131.431 147.134 130.972 145.996 130.554 144.955L130.553 144.955L130.553 144.954L130.553 144.954L130.553 144.953L130.553 144.953C130.269 144.247 130.003 143.587 129.775 142.998C129.209 141.538 127.731 141.181 126.473 142.028C125.83 142.461 125.935 142.897 126.072 143.463C126.203 144.005 126.362 144.667 125.924 145.559C125.863 145.684 125.802 145.807 125.743 145.929C124.937 147.592 124.299 148.905 123.074 147.503C121.518 145.721 119.64 145.148 117.982 144.643C115.994 144.037 114.322 143.528 113.903 141.145C113.626 139.588 112.648 139.155 111.526 138.658C110.945 138.401 110.324 138.126 109.743 137.668C108.04 136.329 107.079 135.625 106.791 136.576C106.653 137.038 108.259 138.571 109.812 140.054L109.812 140.054L109.812 140.054L109.812 140.054C111.107 141.29 112.365 142.492 112.547 143.009C113.144 144.703 110.869 146.188 109.202 146.597C107.853 146.928 107.123 146.111 106.026 144.884L106.026 144.884L106.025 144.884L106.025 144.883C105.767 144.595 105.489 144.284 105.179 143.96C104.816 143.583 104.499 143.23 104.224 142.923C103.258 141.847 102.808 141.345 102.719 142.385C102.556 144.312 104.27 147.153 105.932 148.202C106.233 148.392 106.542 148.56 106.837 148.721L106.837 148.721C107.933 149.319 108.843 149.814 108.48 150.963C108.404 151.205 108.353 151.383 108.314 151.521C108.249 151.747 108.216 151.861 108.156 151.959C108.093 152.059 108.001 152.14 107.814 152.306C107.626 152.473 107.34 152.726 106.891 153.17C105.301 154.742 104.997 155.257 105.113 157.439C105.186 158.816 104.986 159.377 104.742 160.06L104.742 160.06L104.742 160.06L104.742 160.06C104.6 160.459 104.442 160.901 104.316 161.572C104.159 162.403 103.909 162.526 103.618 162.668C103.272 162.838 102.869 163.036 102.499 164.485L102.508 164.499ZM142.359 152.683C143.056 152.056 141.281 150.424 140.105 150.519C139.573 150.567 138.129 151.689 139.017 152.383C139.905 153.078 141.662 153.31 142.359 152.683ZM138.613 149.443C138.236 149.302 137.902 148.943 137.616 148.08C137.33 147.217 138.054 146.718 138.752 147.074C139.449 147.431 140.405 148.512 140.405 149.084C140.405 149.656 138.99 149.59 138.604 149.438L138.613 149.443ZM119.783 149.077C120.668 149.767 122.44 149.994 123.132 149.376H123.139C123.82 148.754 122.047 147.106 120.868 147.212C120.341 147.26 118.897 148.386 119.783 149.077ZM108.168 158.255L108.168 158.255C107.564 160.201 106.758 162.799 106.155 162.331C105.272 161.645 106.514 155.496 106.768 155.028C108.153 152.49 111.146 152.614 108.839 156.336C108.686 156.586 108.449 157.35 108.168 158.255ZM103.758 177.766C106.957 178.702 110.273 179.176 113.606 179.176C121.284 179.186 128.751 176.665 134.851 172.002C134.647 171.926 134.496 171.843 134.345 171.76C133.897 171.514 133.454 171.271 131.653 171.201C128.999 171.102 126.978 172.849 125.635 174.01C125.195 174.39 124.828 174.708 124.535 174.877C124.063 175.15 122.596 174.643 120.644 173.969C117.687 172.947 113.615 171.539 110.195 171.873C107.648 172.118 104.416 173.226 103.333 176.053C103.069 176.654 103.243 177.358 103.758 177.766ZM138.325 168.976C137.946 168.877 137.578 168.741 137.226 168.569C136.077 167.985 135.701 168.311 135.38 168.589C135.166 168.774 134.977 168.938 134.601 168.796C134.234 168.658 134.315 168.242 134.382 167.897C134.488 167.356 134.559 166.987 132.837 168.115C130.804 169.447 130.633 168.714 130.24 167.036C130.086 166.382 129.9 165.584 129.556 164.709C128.329 161.589 130.968 158.026 133.189 157.216C135.444 156.4 137.065 156.065 138.333 155.803L138.333 155.803C138.777 155.712 139.178 155.629 139.547 155.538C141.581 155.03 142.84 154.184 143.684 153.617C144.587 153.01 145.015 152.723 145.41 153.508C145.555 153.792 145.693 154.064 145.821 154.318C146.162 155.039 146.343 155.826 146.352 156.623C144.58 161.266 141.842 165.48 138.318 168.985L138.325 168.976ZM146.15 142.017C143.039 145.596 146.974 151.036 147.914 151.293V151.304C148.401 148.951 148.647 146.555 148.648 144.152C148.648 143.457 148.621 142.789 148.586 142.108C148.139 140.587 147.235 139.531 145.532 139.662C145.353 139.677 145.526 139.993 145.748 140.397C146.053 140.953 146.45 141.677 146.15 142.017Z" fill="white"/>
<path id="Path_3" d="M72.4531 33.9132V24.7464C72.4531 21.7945 73.8496 19.6328 77.2034 19.6328C80.7253 19.6328 81.704 21.5879 81.704 24.3831V26.6198H78.7884V24.122C78.7884 22.948 78.3978 22.2782 77.2511 22.2782C76.1044 22.2782 75.6389 23.1047 75.6389 24.2401V34.4128C75.6389 35.5482 76.1135 36.3679 77.2602 36.3679C78.4069 36.3679 78.7975 35.6412 78.7975 34.5241V31.034H81.704V34.3038C81.704 37.015 80.5868 39.0269 77.2034 39.0269C73.8201 39.0269 72.4531 36.847 72.4531 33.9132Z" fill="white"/>
<path id="Path_4" d="M83.7188 19.8564H86.8977V36.2055H90.6989V38.8054H83.7188V19.8564Z" fill="white"/>
<path id="Path_5" d="M92.4375 19.8564H95.6165V38.8054H92.4375V19.8564Z" fill="white"/>
<path id="Path_6" d="M106.774 26.5119H106.69L104.54 38.8077H103.057L100.682 26.5119H100.625V38.8077H98V19.8564H101.715L103.783 30.5287H103.813L105.657 19.8564H109.678V38.8054H106.774V26.5119Z" fill="white"/>
<path id="Shape_2" fill-rule="evenodd" clip-rule="evenodd" d="M114.836 19.8564L111.258 38.8054H114.278L114.839 35.3381H118.218L118.806 38.8054H122.075L118.47 19.8564H114.836ZM117.795 32.7973H115.249L116.507 25.195H116.537L117.795 32.7973Z" fill="white"/>
<path id="Path_7" d="M121.648 19.8564H130.118V22.4564H127.491V38.8054H124.276V22.4564H121.648V19.8564Z" fill="white"/>
<path id="Path_8" d="M131.883 19.8564H139.485V22.4564H135.069V27.8743H138.227V30.4447H135.069V36.2009H139.485V38.8009H131.883V19.8564Z" fill="white"/>
<path id="Shape_3" fill-rule="evenodd" clip-rule="evenodd" d="M75.4849 46.7217L71.9062 65.6639L74.924 65.6684L75.4849 62.2033H78.8659L79.4541 65.6684H82.7239L79.118 46.7217H75.4849ZM78.4432 59.664H75.8977L77.1557 52.064H77.1852L78.4432 59.664Z" fill="white"/>
<path id="Path_9" d="M83.625 60.7746V51.6078C83.625 48.6445 85.0237 46.4941 88.3776 46.4941C91.8972 46.4941 92.8758 48.4492 92.8758 51.2444V53.4788H89.9693V50.9924C89.9693 49.8184 89.5788 49.1486 88.4321 49.1486C87.2854 49.1486 86.8108 49.9592 86.8108 51.1037V61.2764C86.8108 62.4117 87.2876 63.2337 88.4321 63.2337C89.5765 63.2337 89.9693 62.5071 89.9693 61.3877V57.8953H92.8758V61.1651C92.8758 63.8763 91.7586 65.8882 88.3776 65.8882C84.9965 65.8882 83.625 63.7083 83.625 60.7746Z" fill="white"/>
<path id="Path_10" d="M94.0078 46.7207H102.478V49.3207H99.8413V65.6697H96.6259V49.3207H94.0078V46.7207Z" fill="white"/>
<path id="Path_11" d="M104.219 46.7207H107.398V65.6674H104.219V46.7207Z" fill="white"/>
<path id="Shape_4" fill-rule="evenodd" clip-rule="evenodd" d="M109.523 51.6068V60.7736C109.523 63.7073 110.949 65.8872 114.331 65.8872C117.712 65.8872 119.167 63.7073 119.167 60.7736V51.6068C119.167 48.6435 117.682 46.4932 114.331 46.4932C110.979 46.4932 109.523 48.6435 109.523 51.6068ZM115.989 51.1018V61.2746C115.989 62.4213 115.455 63.2319 114.338 63.2319C113.221 63.2319 112.717 62.4099 112.717 61.2746V51.1018C112.717 49.9574 113.191 49.1467 114.338 49.1467C115.485 49.1467 115.989 49.9665 115.989 51.1018Z" fill="white"/>
<path id="Path_12" d="M123.947 53.7599V65.6652H121.266V46.7207H124.397L127.839 57.586V46.7207H130.496V65.6674H127.694L123.947 53.7599Z" fill="white"/>
</g>
</svg>
