<svg width="228" height="228" viewBox="0 0 228 228" fill="none" xmlns="http://www.w3.org/2000/svg">
<g id="globalgoals_icons_color_goal_17">
<rect id="gg-base" x="0.0703125" y="0.316406" width="227.07" height="227.07" fill="#19486A"/>
<path id="Shape" fill-rule="evenodd" clip-rule="evenodd" d="M77.1667 19.3184H72.5391V37.8882H75.6613V31.5892H77.1667C80.3139 31.5892 81.4629 30.002 81.4629 27.3975V23.4828C81.4629 20.8783 80.3139 19.3184 77.1667 19.3184ZM75.6583 29.1768V21.8629H76.805C77.8814 21.8629 78.3355 22.3602 78.3355 23.3707V27.6418C78.3355 28.6568 77.8745 29.1768 76.805 29.1768H75.6583Z" fill="white"/>
<path id="Shape_2" fill-rule="evenodd" clip-rule="evenodd" d="M85.3419 19.3184L81.8359 37.8882H84.7924L85.3419 34.4821H88.6526L89.227 37.8882H92.4265L88.8978 19.3184H85.3419ZM88.2513 31.9981H85.7535L86.991 24.5479H87.0183L88.2513 31.9981Z" fill="white"/>
<path id="Shape_3" fill-rule="evenodd" clip-rule="evenodd" d="M97.1278 37.8995V29.3821L100.05 37.8881H103.331L100.348 29.4525C102.135 29.0438 102.845 27.863 102.845 25.8648V23.4828C102.845 20.8783 101.696 19.3184 98.5492 19.3184H94.0078V37.8995H97.1278ZM97.1271 27.6532V21.8743L98.1761 21.8629C99.257 21.8629 99.7111 22.3602 99.7111 23.3707V26.1205C99.7111 27.106 99.2456 27.6532 98.1761 27.6532H97.1271Z" fill="white"/>
<path id="Path" d="M103.953 19.3184H112.248V21.8638H109.673V37.8882H106.526V21.8638H103.953V19.3184Z" fill="white"/>
<path id="Path_2" d="M116.838 26.2213V37.8882H114.211V19.3184H117.272L120.644 29.9702V19.3184H123.242V37.8882H120.505L116.838 26.2213Z" fill="white"/>
<path id="Path_3" d="M125.812 19.3184H133.256V21.8638H128.935V27.1773H132.027V29.7H128.935V35.3404H133.256V37.8882H125.812V19.3184Z" fill="white"/>
<path id="Shape_4" fill-rule="evenodd" clip-rule="evenodd" d="M138.323 37.8995V29.3821L141.25 37.8881H144.529L141.545 29.4525C143.33 29.0438 144.043 27.863 144.043 25.8648V23.4828C144.043 20.8783 142.896 19.3184 139.745 19.3184H135.203V37.8995H138.323ZM138.322 27.6532V21.8743L139.365 21.8629C140.432 21.8629 140.897 22.3602 140.897 23.3707V26.1205C140.897 27.106 140.432 27.6532 139.365 27.6532H138.322Z" fill="white"/>
<path id="Path_4" d="M145.594 33.8871V31.3893H148.498V33.9348C148.498 34.977 148.952 35.5788 150.026 35.5788C151.014 35.5788 151.45 34.9202 151.45 33.9348V33.2422C151.45 32.1727 151.014 31.5142 150.051 30.6105L148.221 28.7735C146.441 27.025 145.621 25.9532 145.621 23.8211V23.1898C145.621 20.8873 146.963 19.1025 149.999 19.1025C153.119 19.1025 154.354 20.6353 154.354 23.3215V24.827H151.504V23.2125C151.504 22.1407 151.014 21.623 150.026 21.623C149.15 21.623 148.55 22.118 148.55 23.158V23.5418C148.55 24.584 149.127 25.1835 150.026 26.06L152.024 28.0309C153.723 29.7567 154.54 30.7967 154.54 32.8516V33.7599C154.54 36.3099 153.178 38.1129 149.999 38.1129C146.82 38.1129 145.594 36.3349 145.594 33.8962" fill="white"/>
<path id="Path_5" d="M162.594 29.7H159.585V37.8882H156.461V19.3184H159.585V27.1818H162.594V19.3184H165.739V37.8882H162.594V29.7Z" fill="white"/>
<rect id="Rectangle" x="167.797" y="19.3184" width="3.11996" height="18.5675" fill="white"/>
<path id="Shape_5" fill-rule="evenodd" clip-rule="evenodd" d="M177.637 19.3184H173V37.8882H176.134V31.5892H177.637C180.786 31.5892 181.935 30.002 181.935 27.3975V23.4828C181.935 20.8783 180.786 19.3184 177.637 19.3184ZM176.119 29.1768V21.8629H177.255C178.335 21.8629 178.79 22.3602 178.79 23.3707V27.6418C178.79 28.6568 178.324 29.1768 177.255 29.1768H176.119Z" fill="white"/>
<path id="Path_6" d="M183.148 33.8871V31.3893H186.044V33.9348C186.044 34.977 186.509 35.5788 187.579 35.5788C188.562 35.5788 189.002 34.9202 189.002 33.9348V33.2422C189.002 32.1727 188.562 31.5142 187.606 30.6105L185.771 28.7735C183.993 27.025 183.171 25.9532 183.171 23.8211V23.1898C183.171 20.8873 184.515 19.1025 187.549 19.1025C190.671 19.1025 191.9 20.6353 191.9 23.3215V24.827H189.061V23.2125C189.061 22.1407 188.566 21.623 187.583 21.623C186.707 21.623 186.107 22.118 186.107 23.158V23.5418C186.107 24.584 186.677 25.1835 187.583 26.06L189.581 28.0309C191.278 29.7567 192.097 30.7967 192.097 32.8516V33.7599C192.097 36.3099 190.735 38.1129 187.556 38.1129C184.377 38.1129 183.151 36.3349 183.151 33.8962" fill="white"/>
<path id="Path_7" d="M34.0462 19.3477V65.1272H26.3485V30.0835H26.2804L20.8784 35.6876H20.8125V27.6516L27.9039 19.3477H34.0462Z" fill="white"/>
<path id="Path_8" d="M37.5625 19.3477H56.8771V26.4368L46.8133 65.1272H39.1792L49.4451 25.6261H37.5625V19.3477Z" fill="white"/>
<path id="Path_9" d="M72.5391 46.2881H79.9642V48.8721H75.709V54.2673H78.8789V56.8219H75.709V65.1349H72.5391V46.2881Z" fill="white"/>
<path id="Shape_6" fill-rule="evenodd" clip-rule="evenodd" d="M81.0625 51.1537V60.2638H81.0852C81.0852 63.1816 82.4885 65.3502 85.8537 65.3502C89.2189 65.3502 90.663 63.1816 90.663 60.2638V51.1537C90.663 48.2087 89.1553 46.0674 85.831 46.0674C82.5067 46.0674 81.0625 48.2018 81.0625 51.1537ZM87.505 50.654V60.7632V60.7722C87.505 61.9121 86.9782 62.7182 85.8656 62.7182C84.753 62.7182 84.2557 61.9076 84.2557 60.7722V50.654C84.2557 49.5141 84.7257 48.708 85.8656 48.708C87.0055 48.708 87.505 49.5187 87.505 50.654Z" fill="white"/>
<path id="Shape_7" fill-rule="evenodd" clip-rule="evenodd" d="M95.8899 65.1359V56.4913L98.8577 65.1291H102.189L99.162 56.5663C100.967 56.1575 101.692 54.9609 101.692 52.9331V50.5148C101.692 47.8786 100.522 46.2891 97.325 46.2891H92.7109V65.1359H95.8899ZM95.8893 54.7399V48.8724H96.9452C98.0283 48.8724 98.5029 49.372 98.5029 50.4006V53.1822C98.5029 54.1836 98.0283 54.7399 96.9452 54.7399H95.8893Z" fill="white"/>
<path id="Path_10" d="M106.719 46.2881H115.141V48.8721H112.529V65.1349H109.332V48.8721H106.719V46.2881Z" fill="white"/>
<path id="Path_11" d="M122.836 56.8219H119.777V65.1349H116.609V46.2881H119.777V54.2673H122.836V46.2881H126.033V65.1349H122.836V56.8219Z" fill="white"/>
<path id="Path_12" d="M128.094 46.2881H135.655V48.8721H131.264V54.2673H134.404V56.8219H131.264V62.5508H135.655V65.1349H128.094V46.2881Z" fill="white"/>
<path id="Path_13" d="M145.773 55.072H150.276V65.1357H148.005V63.0785C147.59 64.4977 146.699 65.3492 144.976 65.3492C142.251 65.3492 141 63.1807 141 60.2628V51.1528C141 48.2009 142.417 46.0664 145.755 46.0664C149.256 46.0664 150.296 48.0124 150.296 50.7917V52.4584H147.385V50.542C147.385 49.3748 146.931 48.7072 145.796 48.7072C144.66 48.7072 144.156 49.5133 144.156 50.6532V60.7715C144.156 61.9068 144.626 62.7174 145.714 62.7174C146.74 62.7174 147.269 62.1316 147.269 60.9009V57.5743H145.768L145.773 55.072Z" fill="white"/>
<path id="Shape_8" fill-rule="evenodd" clip-rule="evenodd" d="M152.086 51.1537V60.2638C152.086 63.1816 153.489 65.3502 156.854 65.3502C160.22 65.3502 161.666 63.1816 161.666 60.2638V51.1537C161.666 48.2087 160.179 46.0674 156.854 46.0674C153.53 46.0674 152.086 48.2018 152.086 51.1537ZM158.501 50.654V60.7632V60.7722C158.501 61.9121 157.97 62.7182 156.859 62.7182C155.749 62.7182 155.25 61.9076 155.25 60.7722V50.654C155.25 49.5141 155.72 48.708 156.859 48.708C157.999 48.708 158.501 49.5187 158.501 50.654Z" fill="white"/>
<path id="Shape_9" fill-rule="evenodd" clip-rule="evenodd" d="M166.121 46.2891L162.562 65.1359H165.567L166.121 61.6867H169.486L170.067 65.1359H173.321L169.736 46.2891H166.121ZM169.071 59.1595H166.539L167.793 51.5981H167.818L169.071 59.1595Z" fill="white"/>
<path id="Path_14" d="M175.133 46.2881H178.303V62.5508H182.081V65.1349H175.133V46.2881Z" fill="white"/>
<path id="Path_15" d="M183.219 61.078V58.5484H186.171V61.1325C186.171 62.1884 186.645 62.8015 187.726 62.8015C188.73 62.8015 189.175 62.1316 189.175 61.1325V60.4104C189.175 59.325 188.721 58.6597 187.756 57.7401L185.896 55.8804C184.079 54.1001 183.255 53.017 183.255 50.8462V50.2082C183.255 47.8739 184.617 46.0664 187.701 46.0664C190.88 46.0664 192.122 47.6218 192.122 50.3467V51.8749H189.225V50.2377C189.225 49.1523 188.723 48.6232 187.719 48.6232C186.831 48.6232 186.221 49.125 186.221 50.1809V50.5692C186.221 51.6251 186.806 52.2382 187.719 53.1283L189.749 55.1288C191.475 56.8795 192.311 57.9353 192.311 60.0199V60.9281C192.311 63.5145 190.919 65.3492 187.694 65.3492C184.47 65.3492 183.219 63.5326 183.219 61.0689" fill="white"/>
<path id="Shape_10" fill-rule="evenodd" clip-rule="evenodd" d="M169.987 138.029C169.987 122.082 157.301 109.055 141.497 108.478C137.324 96.6553 126.149 88.749 113.611 88.749C101.074 88.749 89.8988 96.6553 85.7259 108.478C69.9241 109.055 57.2422 122.084 57.2422 138.029C57.243 147.145 61.4553 155.749 68.6547 161.34C67.8824 164.009 67.4895 166.773 67.4876 169.551C67.4876 185.85 80.7553 199.118 97.0657 199.118C103.025 199.123 108.845 197.318 113.755 193.94C118.608 197.194 124.321 198.928 130.163 198.922C146.472 198.922 159.739 185.655 159.739 169.353C159.739 166.633 159.362 163.925 158.62 161.308C165.791 155.713 169.984 147.126 169.987 138.031V138.029ZM137.234 118.323C137.234 130.162 128.472 139.963 117.098 141.657C116.9 140.456 116.797 139.241 116.789 138.024C116.807 126.336 125.366 116.417 136.926 114.69C137.122 115.891 137.225 117.106 137.234 118.323ZM106.545 169.496C106.587 175.825 109.176 181.871 113.726 186.27C118.219 181.811 120.726 175.73 120.684 169.4C120.641 163.07 118.051 157.024 113.499 152.625C109.008 157.086 106.502 163.166 106.545 169.496ZM90.3038 114.692L90.3101 114.693C90.114 115.893 90.0109 117.107 90.0018 118.323C90.0018 130.162 98.7576 139.963 110.127 141.661C110.325 140.46 110.429 139.245 110.438 138.028C110.438 126.189 101.681 116.387 90.3101 114.693L90.3106 114.69L90.3038 114.692ZM94.1255 160.492C100.134 158.538 105.104 154.249 107.917 148.592C102.314 145.672 95.772 145.128 89.7638 147.083C83.7556 149.037 78.7856 153.325 75.9725 158.983C81.5755 161.902 88.1172 162.446 94.1255 160.492ZM119.243 148.433C124.877 145.474 131.469 144.921 137.516 146.902C143.564 148.883 148.552 153.227 151.344 158.946C145.71 161.905 139.118 162.458 133.07 160.477C127.023 158.496 122.035 154.151 119.243 148.433ZM135.27 108.908C131.517 100.292 123.017 94.7169 113.619 94.7067C104.221 94.7175 95.722 100.292 91.9679 108.908C101.457 110.6 109.531 116.798 113.619 125.527C117.71 116.8 125.783 110.604 135.27 108.908ZM63.1998 138.029C63.2155 125.97 72.3001 115.854 84.2878 114.546C83.0309 124.114 86.5463 133.69 93.6954 140.173C84.0802 141.283 75.6136 147.02 71.0178 155.539C66.0453 151.076 63.2032 144.711 63.1998 138.029ZM73.9601 164.655C73.6172 166.264 73.4444 167.905 73.4446 169.551C73.4333 178.008 77.9532 185.824 85.2893 190.033C92.6255 194.241 101.654 194.198 108.949 189.919C102.25 183.048 99.3207 173.342 101.099 163.912C92.7103 168.552 82.5904 168.829 73.9601 164.655ZM153.787 169.354C153.799 177.763 149.332 185.543 142.063 189.772C134.794 194 125.823 194.037 118.519 189.869C125.107 182.951 127.93 173.265 126.089 163.89C134.498 168.56 144.657 168.838 153.308 164.633C153.627 166.186 153.787 167.768 153.787 169.354ZM143.181 118.324C143.183 126.555 139.747 134.413 133.701 139.998C143.296 141.169 151.717 146.947 156.263 155.477C163.159 149.24 165.746 139.532 162.866 130.691C159.987 121.849 152.18 115.526 142.934 114.546C143.095 115.799 143.178 117.061 143.181 118.324Z" fill="white"/>
</g>
</svg>
