<svg width="228" height="228" viewBox="0 0 228 228" fill="none" xmlns="http://www.w3.org/2000/svg">
<g id="globalgoals_icons_color_goal_9">
<rect id="gg-base" x="0.0703125" y="0.926758" width="227.07" height="227.07" fill="#FD6925"/>
<path id="_Compound_Path_" fill-rule="evenodd" clip-rule="evenodd" d="M30.4492 19.2578C38.5466 19.2578 41.6529 24.3851 41.6529 31.4742V53.7452C41.6529 60.9002 38.4103 66.0979 30.3153 66.0979C21.8092 66.0979 19.3773 61.3725 19.3773 54.6263V52.1943H26.4051V55.2303C26.4051 58.0664 27.4133 59.6945 30.179 59.6945C32.9447 59.6945 34.0233 57.7371 34.0233 54.9691V45.1098H33.9575C32.8108 47.3328 30.8557 48.8201 27.6154 48.8201C22.0772 48.8201 19.1094 45.0416 19.1094 37.5483V30.7975C19.1094 23.7107 22.2747 19.2578 30.4492 19.2578ZM30.3854 42.6748C32.806 42.6748 33.8846 41.0558 34.0185 38.4922L34.039 30.1224C34.039 27.2863 33.0285 25.5333 30.4649 25.5333C27.8286 25.5333 26.7523 27.2204 26.7523 30.1224V38.0857C26.7523 41.0558 27.7559 42.6748 30.3854 42.6748Z" fill="white"/>
<path id="_Compound_Path_2" fill-rule="evenodd" clip-rule="evenodd" d="M143.346 134.597L170.34 150.176C170.905 150.5 171.256 151.1 171.262 151.752V183.996C171.259 184.652 170.908 185.257 170.34 185.585L142.426 201.707C141.856 202.034 141.155 202.034 140.585 201.707L113.6 186.128L86.6101 201.721C86.0399 202.048 85.3389 202.048 84.7686 201.721L56.8594 185.599C56.2912 185.271 55.9401 184.665 55.9375 184.009V151.765C55.9396 151.109 56.2908 150.504 56.8594 150.176L83.8535 134.597V103.427C83.8523 102.773 84.1981 102.168 84.7618 101.837L112.689 85.7197C113.259 85.3903 113.961 85.3903 114.531 85.7197L142.438 101.842C143.001 102.173 143.347 102.778 143.346 103.431V134.597ZM89.3771 167.884L111.762 180.811L111.764 154.959L89.3771 167.884ZM137.824 135.661L115.44 148.579V122.734L137.824 135.661ZM89.3771 135.659L111.762 148.581V122.734L89.3771 135.659ZM117.288 151.761L141.512 137.787L165.742 151.77L141.512 165.759L117.288 151.761ZM117.288 119.533L139.67 132.46V106.611L117.288 119.533ZM109.916 119.533L87.5292 132.46V106.622L109.916 119.533ZM59.6185 182.937L83.8469 196.922V168.958L59.6185 154.959V182.937ZM87.5292 196.922V171.075L109.916 184.002L87.5292 196.922ZM143.351 196.922L167.588 182.937L167.584 154.969L143.351 168.958V196.922Z" fill="white"/>
<g id="_Group_">
<path id="_Compound_Path_3" d="M53.6719 20.3154H56.6465V38.0269H53.6719V20.3154Z" fill="white"/>
<path id="_Compound_Path_4" d="M60.4746 26.8926V38.0191H57.9609V20.3076H60.8833L64.0941 30.4622V20.3144H66.5896V38.0259H63.9737L60.4746 26.8926Z" fill="white"/>
<path id="_Compound_Path_5" fill-rule="evenodd" clip-rule="evenodd" d="M76.7917 33.2636V25.0686C76.7917 22.3279 75.6746 20.316 72.4956 20.3047H67.8906V38.0162H72.4774C75.67 38.0162 76.7917 35.9884 76.7917 33.2636ZM73.8117 33.7859C73.8117 34.8577 73.3417 35.5889 72.1132 35.5889H70.862V22.7458H72.1132C73.3417 22.7458 73.8117 23.4747 73.8117 24.5192V33.7859Z" fill="white"/>
<path id="_Compound_Path_6" d="M86.7338 20.3154V33.7126C86.7338 36.4533 85.5598 38.229 82.5307 38.229C79.3994 38.229 78.0938 36.4533 78.0938 33.7126V20.3154H81.0706V33.9941C81.0706 35.0386 81.4862 35.7448 82.5307 35.7448C83.5752 35.7448 83.993 35.0386 83.993 33.9941V20.3154H86.7338Z" fill="white"/>
<path id="_Compound_Path_7" d="M87.8984 34.2023V31.8272H90.6732V34.2545C90.6732 35.2468 91.116 35.8213 92.1333 35.8213C93.0734 35.8213 93.4957 35.1946 93.4957 34.2545V33.5733C93.4957 32.5561 93.0779 31.9293 92.1651 31.0756L90.4166 29.3249C88.7182 27.6559 87.9348 26.6363 87.9348 24.6018V24.0001C87.9348 21.8088 89.2154 20.1104 92.1128 20.1104C95.0875 20.1104 96.2637 21.5727 96.2637 24.1318V25.5668H93.5388V24.0273C93.5388 23.0078 93.0688 22.5128 92.1287 22.5128C91.2931 22.5128 90.7209 22.9828 90.7209 23.9751V24.3407C90.7209 25.333 91.2681 25.9074 92.1287 26.7408L94.0361 28.6209C95.6529 30.2649 96.4363 31.2572 96.4363 33.2146V34.0797C96.4363 36.5071 95.1306 38.2305 92.1038 38.2305C89.0769 38.2305 87.8984 36.5252 87.8984 34.2023Z" fill="white"/>
<path id="_Compound_Path_8" d="M96.6016 20.3154H104.508V22.7451H102.056V38.0155H99.0585V22.7451H96.6061L96.6016 20.3154Z" fill="white"/>
<path id="_Compound_Path_9" fill-rule="evenodd" clip-rule="evenodd" d="M108.498 38.0162V29.8961L111.291 38.0048H114.425L111.579 29.9642C113.273 29.5714 113.955 28.4497 113.955 26.5446V24.2739C113.955 21.7943 112.858 20.3047 109.856 20.3047H105.523V38.0162H108.498ZM108.495 28.2522V22.7458H109.487C110.495 22.7458 110.949 23.2135 110.949 24.1808V26.7899C110.949 27.73 110.504 28.2522 109.487 28.2522H108.495Z" fill="white"/>
<path id="_Compound_Path_10" d="M120.308 31.2806V38.0155H117.331V31.2806L114.016 20.3154H117.122L118.925 27.0253H118.95L120.751 20.3154H123.587L120.308 31.2806Z" fill="white"/>
<path id="_Compound_Path_11" d="M126.16 35.4048L124.646 39.3989H122.977L123.34 35.1709H126.16V35.4048Z" fill="white"/>
<path id="_Compound_Path_12" d="M129.82 20.3154H132.795V38.0269H129.82V20.3154Z" fill="white"/>
<path id="_Compound_Path_13" d="M136.623 26.8926V38.0191H134.125V20.3076H137.05L140.26 30.4622V20.3144H142.74V38.0259H140.129L136.623 26.8926Z" fill="white"/>
<path id="_Compound_Path_14" d="M146.537 26.8926V38.0191H144.039V20.3076H146.961L150.172 30.4622V20.3144H152.647V38.0259H150.036L146.537 26.8926Z" fill="white"/>
<path id="_Compound_Path_15" fill-rule="evenodd" clip-rule="evenodd" d="M153.961 24.8847V33.4475C153.961 36.1882 155.296 38.216 158.45 38.216C161.604 38.216 162.967 36.1882 162.967 33.4475V24.8847C162.967 22.1281 161.577 20.1162 158.45 20.1162C155.323 20.1162 153.961 22.119 153.961 24.8847ZM159.986 24.4145V33.9174C159.986 34.9892 159.487 35.7453 158.445 35.7453C157.402 35.7453 156.932 34.9869 156.932 33.9174V24.4145C156.932 23.3541 157.373 22.5979 158.445 22.5979C159.516 22.5979 159.986 23.345 159.986 24.4145Z" fill="white"/>
<path id="_Compound_Path_16" d="M173.795 20.3154L170.428 38.0269H167.185L163.82 20.3154H166.847L168.891 32.6635H168.916L171.005 20.3154H173.795Z" fill="white"/>
<path id="_Compound_Path_17" fill-rule="evenodd" clip-rule="evenodd" d="M176.207 20.3047L172.867 38.0162H175.681L176.201 34.7781H179.357L179.906 38.0162H182.981L179.613 20.3047H176.207ZM178.982 32.4037H176.607L177.781 25.3033H177.809L178.982 32.4037Z" fill="white"/>
<path id="_Compound_Path_18" d="M182.156 20.3154H190.065V22.7451H187.61V38.0155H184.609V22.7451H182.156V20.3154Z" fill="white"/>
<path id="_Compound_Path_19" d="M191.055 20.3154H194.029V38.0269H191.055V20.3154Z" fill="white"/>
<path id="_Compound_Path_20" fill-rule="evenodd" clip-rule="evenodd" d="M195.352 24.8847V33.4475C195.352 36.1882 196.691 38.216 199.843 38.216C202.995 38.216 204.357 36.1882 204.357 33.4475V24.8847C204.357 22.1281 202.972 20.1162 199.843 20.1162C196.714 20.1162 195.352 22.119 195.352 24.8847ZM201.377 24.4145V33.9174C201.377 34.9892 200.882 35.7453 199.838 35.7453C198.793 35.7453 198.323 34.9869 198.323 33.9174V24.4145C198.323 23.3541 198.768 22.5979 199.838 22.5979C200.907 22.5979 201.377 23.345 201.377 24.4145Z" fill="white"/>
<path id="_Compound_Path_21" d="M208.17 26.8926V38.0191H205.672V20.3076H208.597L211.807 30.4622V20.3144H214.287V38.0259H211.676L208.17 26.8926Z" fill="white"/>
</g>
<g id="_Group_2">
<path id="_Compound_Path_22" fill-rule="evenodd" clip-rule="evenodd" d="M56.5355 47.5898L53.1953 65.2877H56.0019L56.5242 62.052H59.6872L60.2345 65.2877H63.284L59.9166 47.5898H56.5355ZM59.2981 59.676H56.9207L58.0969 52.5755H58.1219L59.2981 59.676Z" fill="white"/>
<path id="_Compound_Path_23" d="M66.8884 54.1681V65.2945H64.3906V47.5898H67.3153L70.5261 57.7444V47.5898H72.9966V65.2877H70.3853L66.8884 54.1681Z" fill="white"/>
<path id="_Compound_Path_24" fill-rule="evenodd" clip-rule="evenodd" d="M83.4636 60.5374V52.3402C83.4636 49.5994 82.3396 47.5898 79.1561 47.5898H74.5625V65.2877H79.1493C82.3396 65.2877 83.4636 63.2622 83.4636 60.5374ZM80.4836 61.059C80.4836 62.1285 80.0135 62.8596 78.7874 62.8596L77.5339 62.8574V50.0143H78.7874C80.0135 50.0143 80.4836 50.7455 80.4836 51.79V61.059Z" fill="white"/>
<path id="_Compound_Path_25" d="M87.6406 47.5898H90.6175V65.2877H87.6406V47.5898Z" fill="white"/>
<path id="_Compound_Path_26" d="M94.7243 54.1681V65.2945H92.2266V47.5898H95.149L98.3597 57.7444V47.5898H100.839V65.2877H98.2235L94.7243 54.1681Z" fill="white"/>
<path id="_Compound_Path_27" d="M102.398 47.5898H109.37V50.0172H105.375V55.0832H108.35V57.4833H105.375V65.2877H102.398V47.5898Z" fill="white"/>
<path id="_Compound_Path_28" fill-rule="evenodd" clip-rule="evenodd" d="M113.514 65.2877V57.1699L116.307 65.2877H119.44L116.595 57.2494C118.289 56.8566 118.97 55.7349 118.97 53.8297V51.559C118.97 49.0772 117.873 47.5898 114.872 47.5898H110.539V65.2877H113.514ZM113.51 55.5267V50.018H114.507C115.516 50.018 115.97 50.488 115.97 51.4553V54.0644C115.97 55.0044 115.525 55.5267 114.507 55.5267H113.51Z" fill="white"/>
<path id="_Compound_Path_29" fill-rule="evenodd" clip-rule="evenodd" d="M123.327 47.5898L119.984 65.2877H122.805L123.327 62.052H126.485L127.033 65.2877H130.087L126.719 47.5898H123.327ZM126.095 59.676H123.725L124.896 52.5755H124.921L126.095 59.676Z" fill="white"/>
<path id="_Compound_Path_30" d="M130.766 61.4767V59.1016H133.534V61.529C133.534 62.5213 133.988 63.0958 134.994 63.0958C135.934 63.0958 136.356 62.469 136.356 61.529V60.8478C136.356 59.8305 135.938 59.2038 135.025 58.35L133.277 56.5993C131.581 54.9303 130.797 53.9108 130.797 51.8739V51.2745C130.797 49.081 132.076 47.3848 134.973 47.3848C137.948 47.3848 139.124 48.8471 139.124 51.4062V52.8413H136.399V51.3017C136.399 50.2822 135.929 49.7872 134.989 49.7872C134.154 49.7872 133.581 50.2572 133.581 51.2495V51.6151C133.581 52.6051 134.129 53.1796 134.989 54.0152L136.897 55.8954C138.513 57.5393 139.297 58.5316 139.297 60.489V61.3519C139.297 63.7792 137.991 65.5004 134.964 65.5004C131.937 65.5004 130.766 63.7997 130.766 61.4767Z" fill="white"/>
<path id="_Compound_Path_31" d="M140.008 47.5898H147.917V50.0172H145.462V65.2877H142.46V50.0172H140.008V47.5898Z" fill="white"/>
<path id="_Compound_Path_32" fill-rule="evenodd" clip-rule="evenodd" d="M152.146 65.2877V57.1699L154.928 65.2877H158.062L155.216 57.2494C156.91 56.8566 157.592 55.7349 157.592 53.8297V51.559C157.592 49.0772 156.506 47.5898 153.504 47.5898H149.172V65.2877H152.146ZM152.143 55.5267V50.018H153.136C154.144 50.018 154.598 50.488 154.598 51.4553V54.0644C154.598 55.0044 154.153 55.5267 153.136 55.5267H152.143Z" fill="white"/>
<path id="_Compound_Path_33" d="M167.726 47.5898V60.987C167.726 63.7277 166.552 65.5011 163.523 65.5011C160.392 65.5011 159.086 63.7277 159.086 60.987V47.5898H162.063V61.2686C162.063 62.3131 162.481 63.017 163.523 63.017C164.565 63.017 164.985 62.3131 164.985 61.2686V47.5898H167.726Z" fill="white"/>
<path id="_Compound_Path_34" d="M169.289 60.7219V52.1591C169.289 49.3911 170.595 47.3906 173.726 47.3906C177.016 47.3906 177.929 49.2072 177.929 51.8276V53.9166H175.204V51.5846C175.204 50.4879 174.839 49.8611 173.767 49.8611C172.695 49.8611 172.255 50.6196 172.255 51.6891V61.192C172.255 62.2615 172.709 63.0085 173.767 63.0085C174.825 63.0085 175.204 62.3273 175.204 61.2873V58.0334H177.929V61.0875C177.929 63.6193 176.885 65.4972 173.726 65.4972C170.567 65.4972 169.289 63.4627 169.289 60.7219Z" fill="white"/>
<path id="_Compound_Path_35" d="M178.43 47.5898H186.339V50.0172H183.884V65.2877H180.882V50.0172H178.43L178.43 47.5898Z" fill="white"/>
<path id="_Compound_Path_36" d="M196.234 47.5898V60.987C196.234 63.7277 195.06 65.5011 192.031 65.5011C188.897 65.5011 187.594 63.7277 187.594 60.987V47.5898H190.575V61.2686C190.575 62.3131 190.993 63.017 192.037 63.017C193.082 63.017 193.5 62.3131 193.5 61.2686V47.5898H196.234Z" fill="white"/>
<path id="_Compound_Path_37" fill-rule="evenodd" clip-rule="evenodd" d="M200.779 65.2877V57.1699L203.568 65.2877H206.701L203.861 57.2494C205.555 56.8566 206.236 55.7349 206.236 53.8297V51.559C206.236 49.0772 205.139 47.5898 202.137 47.5898H197.805V65.2877H200.779ZM200.776 55.5267V50.018H201.768C202.777 50.018 203.231 50.488 203.231 51.4553V54.0644C203.231 55.0044 202.786 55.5267 201.768 55.5267H200.776Z" fill="white"/>
<path id="_Compound_Path_38" d="M207.727 47.5898H214.827V50.0172H210.703V55.0832H213.655V57.4833H210.703V62.8603H214.827V65.2877H207.727V47.5898Z" fill="white"/>
</g>
</g>
</svg>
