<svg width="228" height="228" viewBox="0 0 228 228" fill="none" xmlns="http://www.w3.org/2000/svg">
<g id="globalgoals_icons_color_goal_8">
<rect id="gg-base" y="0.462891" width="227.07" height="227.07" fill="#A21942"/>
<path id="_Compound_Path_" fill-rule="evenodd" clip-rule="evenodd" d="M44.121 54.073V49.0775C44.121 44.6905 42.5701 41.516 38.9892 39.8948C42.0252 38.412 43.4466 35.7099 43.4466 31.9291V30.0354C43.4466 22.8781 39.734 19.0293 32.6426 19.0293C25.6216 19.0293 21.9704 22.8895 21.9704 30.0354V31.9291C21.9704 35.644 23.3328 38.412 26.2847 39.8948C22.7061 41.516 21.2188 44.6905 21.2188 49.0775V54.073C21.2188 61.0259 24.5294 65.8807 32.6336 65.8807C40.8081 65.8807 44.1119 61.0168 44.1119 54.073H44.121ZM29.1869 29.5503C29.1869 26.7778 30.1361 25.1588 32.6338 25.1588C35.1974 25.1588 36.1443 26.7778 36.1443 29.5503V32.6544C36.1443 35.4223 35.1974 37.0482 32.6338 37.0482C30.1361 37.0482 29.1869 35.4223 29.1869 32.6544V29.5503ZM32.6357 59.6094C35.4036 59.6094 36.4164 57.6521 36.4164 54.8818V47.4544C36.4164 44.6864 35.4036 42.7268 32.6357 42.7268C29.9335 42.7268 28.9208 44.6864 28.9208 47.4544V54.8818C28.9208 57.6521 29.9335 59.6094 32.6357 59.6094Z" fill="white"/>
<g id="Group">
<path id="_Path_2" d="M157.631 112.182L134.551 134.133C133.682 134.998 133.234 135.637 133.234 137.43V198.966C133.237 199.692 133.826 200.279 134.551 200.279H158.394C159.119 200.279 159.707 199.692 159.709 198.966V112.732C159.709 112.005 159.141 110.688 157.633 112.178" fill="white"/>
<path id="_Path_3" d="M91.1331 140.793L68.0514 162.735C67.184 163.602 66.7344 164.238 66.7344 166.03V198.955C66.7381 199.68 67.3267 200.265 68.0514 200.265H91.8937C92.6181 200.265 93.206 199.679 93.2085 198.955V141.334C93.2085 140.605 92.634 139.276 91.1331 140.782" fill="white"/>
<path id="_Path_4" d="M168.119 85.5503C168.13 85.3634 168.058 85.181 167.924 85.0508C167.807 84.9406 167.657 84.874 167.497 84.8623H167.37H167.181L149.508 88.8678L149.188 88.9019C149.059 88.9285 148.939 88.9906 148.843 89.0813C148.585 89.3459 148.585 89.7681 148.843 90.0327L149.043 90.2325L153.08 94.2675L113.034 134.314L94.5393 115.814C94.4402 115.713 94.3043 115.655 94.1624 115.655C94.0205 115.655 93.8846 115.713 93.7854 115.814L88.7672 120.835L59.1141 150.486C58.9099 150.695 58.9099 151.03 59.1141 151.239L64.1392 156.262C64.238 156.362 64.3725 156.418 64.5127 156.418C64.6529 156.418 64.7873 156.362 64.8862 156.262L94.1783 126.988L107.598 140.413C107.611 140.435 107.625 140.456 107.641 140.476L112.662 145.49C112.761 145.591 112.896 145.649 113.038 145.649C113.179 145.649 113.315 145.591 113.413 145.49L158.852 100.042L163.089 104.277C163.214 104.403 163.383 104.474 163.561 104.474C163.738 104.474 163.908 104.403 164.032 104.277C164.15 104.162 164.219 104.006 164.225 103.841V103.786L168.105 85.7456L168.119 85.5503Z" fill="white"/>
<path id="_Path_5" d="M124.521 144.635L113.354 155.893C113.143 156.072 112.831 156.06 112.634 155.866L102.518 145.561C100.665 143.717 100.266 145.214 100.266 145.938V198.961C100.265 199.309 100.402 199.642 100.648 199.888C100.893 200.135 101.226 200.273 101.574 200.274H125.416C126.139 200.271 126.725 199.685 126.726 198.961V145.05C126.726 144.326 126.156 142.993 124.517 144.635" fill="white"/>
</g>
<g id="_Group_2">
<path id="_Compound_Path_2" fill-rule="evenodd" clip-rule="evenodd" d="M70.3427 33.0394V24.4448C70.3427 21.5815 69.1642 19.4629 65.8263 19.4629H61.0078V38.0213H65.8263C69.1642 38.0213 70.3427 35.8869 70.3427 33.0394ZM67.222 33.5858C67.222 34.7098 66.7293 35.475 65.4418 35.475H64.1271V22.0075H65.4418C66.7293 22.0075 67.222 22.7727 67.222 23.8694V33.5858Z" fill="white"/>
<path id="_Compound_Path_3" d="M72.2969 19.4629H79.7425V22.0083H75.4282V27.3195H78.5208V29.8377H75.4168V35.4759H79.7311V38.0213H72.2969V19.4629Z" fill="white"/>
<path id="_Compound_Path_4" d="M81.3359 33.231V24.2504C81.3359 21.3484 82.6984 19.2412 85.9886 19.2412C89.4378 19.2412 90.396 21.1577 90.396 23.8961V26.0851H87.5508V23.6486C87.5508 22.4997 87.1671 21.8321 86.0454 21.8321C84.9236 21.8321 84.4559 22.6268 84.4559 23.7486V33.7147C84.4559 34.8364 84.9214 35.6311 86.0454 35.6311C87.1694 35.6311 87.5508 34.9181 87.5508 33.8146V30.4108H90.396V33.6147C90.396 36.2715 89.3015 38.2424 85.9886 38.2424C82.6756 38.2424 81.3359 36.1125 81.3359 33.231Z" fill="white"/>
<path id="_Compound_Path_5" d="M92.2891 19.4629H99.7347V22.0083H95.4204V27.3195H98.5153V29.8377H95.409V35.4759H99.7233V38.0213H92.2891V19.4629Z" fill="white"/>
<path id="_Compound_Path_6" d="M104.22 26.3613V38.0213H101.602V19.4629H104.674L108.041 30.1102V19.4629H110.641V38.0213H107.898L104.22 26.3613Z" fill="white"/>
<path id="_Compound_Path_7" d="M112.242 19.4629H120.537V22.0083H117.964V38.0213H114.815V22.0083H112.242V19.4629Z" fill="white"/>
<path id="_Compound_Path_8" d="M131.99 26.552L130.239 38.0213H127.31L124.812 19.4629H127.839L129.29 31.2342H129.318L130.878 19.4629H133.423L135.146 31.2342H135.174L136.597 19.4629H139.227L136.809 38.0213H133.857L132.022 26.552H131.99Z" fill="white"/>
<path id="_Compound_Path_9" fill-rule="evenodd" clip-rule="evenodd" d="M140.469 24.2504V33.231C140.469 36.1125 141.868 38.2402 145.178 38.2402C148.489 38.2402 149.913 36.1057 149.913 33.231V24.2504C149.913 21.3484 148.464 19.2412 145.178 19.2412C141.892 19.2412 140.469 21.3484 140.469 24.2504ZM146.792 23.7577V33.7238C146.792 34.8455 146.274 35.6403 145.177 35.6403C144.081 35.6403 143.588 34.8455 143.588 33.7238V23.7577C143.588 22.636 144.056 21.8412 145.177 21.8412C146.299 21.8412 146.792 22.636 146.792 23.7577Z" fill="white"/>
<path id="_Compound_Path_10" fill-rule="evenodd" clip-rule="evenodd" d="M154.995 38.0213V29.5085L157.924 38.0213H161.203L158.217 29.5902C160.004 29.1838 160.715 28.003 160.715 26.0048V23.6228C160.715 21.0229 159.566 19.4629 156.416 19.4629H151.875V38.0213H154.995ZM154.994 27.7916V22.015L156.034 22.0263C157.115 22.0263 157.569 22.5191 157.569 23.5318V26.2566C157.569 27.2421 157.104 27.7916 156.034 27.7916H154.994Z" fill="white"/>
<path id="_Compound_Path_11" d="M165.729 28.9885V38.0213H162.609V19.4629H165.729V27.6193L169.135 19.4629H172.201L168.588 27.8123L172.283 38.0304H168.988L165.729 28.9885Z" fill="white"/>
<path id="_Compound_Path_12" fill-rule="evenodd" clip-rule="evenodd" d="M180.129 19.4629L176.625 38.0213H179.581L180.129 34.6289H183.442L184.016 38.0213H187.22L183.687 19.4629H180.129ZM183.04 32.1362H180.543L181.78 24.6906H181.81L183.04 32.1362Z" fill="white"/>
<path id="_Compound_Path_13" d="M190.887 26.3613V38.0213H188.258V19.4629H191.326L194.693 30.1102V19.4629H197.293V38.0213H194.554L190.887 26.3613Z" fill="white"/>
<path id="_Compound_Path_14" fill-rule="evenodd" clip-rule="evenodd" d="M208.685 33.0394V24.4448C208.685 21.5815 207.507 19.4629 204.176 19.4629H199.359V38.0213H204.166C207.507 38.0213 208.685 35.8869 208.685 33.0394ZM205.557 33.5858C205.557 34.7098 205.064 35.475 203.779 35.475H202.464V22.0075H203.779C205.064 22.0075 205.557 22.7727 205.557 23.8694V33.5858Z" fill="white"/>
</g>
<g id="_Group_3">
<path id="_Compound_Path_15" d="M61.0078 46.7197H68.4534V49.2652H64.1277V54.5763H67.2227V57.0945H64.1277V62.735H68.4534V65.2804H61.0078V46.7197Z" fill="white"/>
<path id="_Compound_Path_16" d="M69.8203 60.4885V51.5101C69.8203 48.6082 71.1827 46.501 74.473 46.501C77.9222 46.501 78.8804 48.4152 78.8804 51.1536V53.3449H76.0329V50.9084C76.0329 49.7572 75.6515 49.0918 74.5275 49.0918C73.4035 49.0918 72.938 49.8843 72.938 51.0083V60.9721C72.938 62.0939 73.4035 62.8886 74.5275 62.8886C75.6515 62.8886 76.0329 62.1779 76.0329 61.072V57.6683H78.8804V60.8631C78.8804 63.5176 77.7859 65.4885 74.473 65.4885C71.16 65.4885 69.8203 63.3609 69.8203 60.4885Z" fill="white"/>
<path id="_Compound_Path_17" fill-rule="evenodd" clip-rule="evenodd" d="M80.5781 51.5101V60.4885C80.5781 63.3609 81.9746 65.4976 85.2876 65.4976C88.6005 65.4976 90.0242 63.3632 90.0242 60.4885V51.5101C90.0242 48.6082 88.5733 46.501 85.2876 46.501C82.0019 46.501 80.5781 48.6082 80.5781 51.5101ZM86.9013 51.0174V60.9813C86.9013 62.103 86.3836 62.8977 85.2869 62.8977C84.1901 62.8977 83.6974 62.103 83.6974 60.9813V51.0174C83.6974 49.8934 84.1651 49.101 85.2869 49.101C86.4086 49.101 86.9013 49.8934 86.9013 51.0174Z" fill="white"/>
<path id="_Compound_Path_18" d="M94.4319 53.6181V65.2804H91.8047V46.7197H94.8701L98.2376 57.3693V46.7197H100.838V65.2804H98.0922L94.4319 53.6181Z" fill="white"/>
<path id="_Compound_Path_19" fill-rule="evenodd" clip-rule="evenodd" d="M102.609 51.5101V60.4885C102.609 63.3609 104.004 65.4976 107.317 65.4976C110.629 65.4976 112.053 63.3632 112.053 60.4885V51.5101C112.053 48.6082 110.6 46.501 107.317 46.501C104.033 46.501 102.609 48.6082 102.609 51.5101ZM108.935 51.0174V60.9813C108.935 62.103 108.415 62.8977 107.318 62.8977C106.221 62.8977 105.729 62.103 105.729 60.9813V51.0174C105.729 49.8934 106.194 49.101 107.318 49.101C108.442 49.101 108.935 49.8934 108.935 51.0174Z" fill="white"/>
<path id="_Compound_Path_20" d="M122.425 53.2344H122.343L120.234 65.2691H118.783L116.458 53.2344H116.401V65.2691H113.828V46.7197H117.461L119.487 57.1649H119.514L121.33 46.7197H125.275V65.2804H122.425V53.2344Z" fill="white"/>
<path id="_Compound_Path_21" d="M127.062 46.7197H130.182V65.2804H127.062V46.7197Z" fill="white"/>
<path id="_Compound_Path_22" d="M131.922 60.4885V51.5101C131.922 48.6082 133.284 46.501 136.575 46.501C140.024 46.501 140.982 48.4152 140.982 51.1536V53.3449H138.144V50.9084C138.144 49.7572 137.76 49.0918 136.638 49.0918C135.516 49.0918 135.049 49.8843 135.049 51.0083V60.9721C135.049 62.0939 135.514 62.8886 136.638 62.8886C137.762 62.8886 138.144 62.1779 138.144 61.072V57.6683H140.991V60.8631C140.991 63.5176 139.897 65.4885 136.584 65.4885C133.271 65.4885 131.922 63.3609 131.922 60.4885Z" fill="white"/>
<path id="_Compound_Path_23" d="M151.012 55.3703H155.446V65.2797H153.203V63.2542C152.792 64.6507 151.916 65.4976 150.219 65.4976C147.535 65.4976 146.305 63.3632 146.305 60.4885V51.5101C146.305 48.6082 147.699 46.501 150.985 46.501C154.434 46.501 155.446 48.4152 155.446 51.1536V52.7954H152.599V50.9084C152.599 49.7572 152.161 49.0918 151.039 49.0918C149.917 49.0918 149.425 49.8843 149.425 51.0083V60.9721C149.425 62.0939 149.879 62.8886 150.957 62.8886C151.97 62.8886 152.49 62.3141 152.49 61.1084V57.834H151.012V55.3703Z" fill="white"/>
<path id="_Compound_Path_24" fill-rule="evenodd" clip-rule="evenodd" d="M160.341 65.2895V56.7767L163.27 65.2804H166.547L163.561 56.8493C165.346 56.4406 166.059 55.2598 166.059 53.2616V50.8796C166.059 48.2797 164.907 46.7197 161.76 46.7197H157.219V65.2895H160.341ZM160.338 55.0591V49.2825L161.378 49.2643C162.457 49.2643 162.911 49.757 162.911 50.7698V53.5264C162.911 54.5119 162.445 55.0591 161.378 55.0591H160.338Z" fill="white"/>
<path id="_Compound_Path_25" fill-rule="evenodd" clip-rule="evenodd" d="M167.492 51.5101V60.4885C167.492 63.3609 168.889 65.4976 172.202 65.4976C175.515 65.4976 176.936 63.3632 176.936 60.4885V51.5101C176.936 48.6082 175.487 46.501 172.202 46.501C168.916 46.501 167.492 48.6082 167.492 51.5101ZM173.815 51.0174V60.9813C173.815 62.103 173.298 62.8977 172.201 62.8977C171.104 62.8977 170.611 62.103 170.611 60.9813V51.0174C170.611 49.8934 171.079 49.101 172.201 49.101C173.323 49.101 173.815 49.8934 173.815 51.0174Z" fill="white"/>
<path id="_Compound_Path_26" d="M184.928 53.8088L183.177 65.2804H180.248L177.75 46.7197H180.768L182.219 58.491H182.246L183.806 46.7197H186.351L188.077 58.491H188.104L189.528 46.7197H192.155L189.746 65.2804H186.794L184.959 53.8088H184.928Z" fill="white"/>
<path id="_Compound_Path_27" d="M193.109 46.7197H201.404V49.2652H198.832V65.2804H195.682V49.2652H193.109V46.7197Z" fill="white"/>
<path id="_Compound_Path_28" d="M208.5 57.0945H205.499V65.2691H202.367V46.7197H205.499V54.5763H208.509V46.7197H211.657V65.2804H208.5V57.0945Z" fill="white"/>
</g>
</g>
</svg>
