<svg width="228" height="228" viewBox="0 0 228 228" fill="none" xmlns="http://www.w3.org/2000/svg">
<g id="globalgoals_icons_color_goal_11">
<rect id="gg-base" y="0.389648" width="227.07" height="227.07" fill="#FD9D24"/>
<path id="Path" d="M66.4341 38.1737C69.6131 38.1737 70.9755 36.3572 70.9755 33.8208V32.9125C70.9755 30.8689 70.1535 29.8198 68.4573 28.0941L66.4591 26.1231C65.5508 25.2466 64.9832 24.6449 64.9832 23.6004V23.2212C64.9832 22.1789 65.5849 21.6862 66.4591 21.6862C67.4423 21.6862 67.9373 22.2062 67.9373 23.2757V24.8879H70.7825V23.3847C70.7825 20.703 69.5541 19.168 66.4319 19.168C63.3914 19.168 62.0517 20.9482 62.0517 23.2552V23.8888C62.0517 26.0209 62.8737 27.0904 64.6516 28.8412L66.4841 30.6804C67.4423 31.5887 67.8806 32.2381 67.8806 33.3054V34.0161C67.8806 35.0038 67.4423 35.6601 66.4591 35.6601C65.3919 35.6601 64.9264 35.0583 64.9264 34.0161V31.4729H62.0312V33.9707C62.0312 36.4071 63.2597 38.1874 66.4341 38.1874" fill="white"/>
<path id="Path_2" d="M81.3983 33.4365V19.3877H78.5236V33.7362C78.5236 34.833 78.0854 35.5687 76.9886 35.5687C75.8919 35.5687 75.4582 34.833 75.4582 33.7362V19.3877H72.3359V33.4365C72.3359 36.3112 73.6984 38.1732 76.9886 38.1732C80.1676 38.1732 81.3983 36.3112 81.3983 33.4365Z" fill="white"/>
<path id="Path_3" d="M91.9411 33.8205V32.9122C91.9411 30.8686 91.1168 29.8195 89.4251 28.0938L87.4269 26.1228C86.5186 25.2486 85.9464 24.6446 85.9464 23.6069V23.2231C85.9464 22.1809 86.5527 21.6881 87.4269 21.6881C88.4124 21.6881 88.9028 22.2058 88.9028 23.2776V24.8898H91.7412V23.3866C91.7412 20.7004 90.5128 19.1699 87.3906 19.1699C84.3523 19.1699 83.0104 20.9502 83.0104 23.2572V23.8862C83.0104 26.0206 83.8346 27.0901 85.6149 28.8431L87.445 30.6801C88.4033 31.5884 88.8393 32.2378 88.8393 33.305V34.0203C88.8393 35.0012 88.4033 35.662 87.4178 35.662C86.3506 35.662 85.8851 35.058 85.8851 34.0203V31.4635H82.9922V33.9613C82.9922 36.3977 84.2206 38.1757 87.3974 38.1757C90.5741 38.1757 91.9388 36.3591 91.9388 33.8228" fill="white"/>
<path id="Path_4" d="M100.98 19.3877H92.6875V21.9354H95.2579V37.9552H98.4074V21.9354H100.98V19.3877Z" fill="white"/>
<path id="Shape" fill-rule="evenodd" clip-rule="evenodd" d="M103.902 19.3877H107.46L110.989 37.9529H107.785L107.208 34.5605H103.898L103.35 37.9529H100.398L103.902 19.3877ZM105.544 24.6191L104.316 32.067H106.807L105.574 24.6191H105.544Z" fill="white"/>
<rect id="Rectangle" x="112.25" y="19.3916" width="3.11996" height="18.5675" fill="white"/>
<path id="Path_5" d="M126.176 37.9552V19.3877H123.576V30.0373L120.206 19.3877H117.141V37.9552H119.77V26.2884L123.435 37.9552H126.176Z" fill="white"/>
<path id="Shape_2" fill-rule="evenodd" clip-rule="evenodd" d="M134.012 34.5582H130.699L130.147 37.9529H127.195L130.699 19.3877H134.257L137.786 37.9643H134.584L134.012 34.5582ZM132.361 24.6173H132.331L131.098 32.0674H133.596L132.361 24.6173Z" fill="white"/>
<path id="Shape_3" fill-rule="evenodd" clip-rule="evenodd" d="M147.468 25.3655V23.4808C147.468 20.8513 146.43 19.3936 143.308 19.3936H138.789V37.9611H143.635C146.757 37.9611 147.931 36.5101 147.931 33.8738V31.4124C147.931 29.7139 147.168 28.6716 145.606 28.3174C146.893 27.9064 147.468 26.9209 147.468 25.3655ZM141.923 21.9363H142.993C144.03 21.9363 144.498 22.4267 144.498 23.4417V25.7124C144.498 26.7002 144.03 27.2202 143.018 27.2202H141.923V21.9363ZM143.286 35.4112C144.326 35.4112 144.816 34.889 144.816 33.9035L144.823 31.1083C144.823 30.125 144.357 29.6051 143.263 29.6051H141.923V35.4112H143.286Z" fill="white"/>
<path id="Path_6" d="M152.339 19.3877H149.219V37.9552H156.058V35.4075H152.339V19.3877Z" fill="white"/>
<path id="Path_7" d="M164.649 21.9354V19.3877H157.203V37.9552H164.649V35.4075H160.323V29.7648H163.416V27.2489H160.323V21.9354H164.649Z" fill="white"/>
<path id="Path_8" d="M174.543 38.1744C177.856 38.1744 178.953 36.2034 178.953 33.5467V30.3428H176.103V33.7693C176.103 34.8592 175.719 35.5722 174.598 35.5722C173.476 35.5722 173.008 34.7797 173.008 33.6557V23.6896C173.008 22.5543 173.462 21.7709 174.598 21.7709C175.733 21.7709 176.103 22.4271 176.103 23.5874V26.0262H178.953V23.8349C178.953 21.0942 177.992 19.1777 174.543 19.1777C171.26 19.1777 169.891 21.2849 169.891 24.1869V33.1721C169.891 36.0468 171.253 38.1812 174.543 38.1812" fill="white"/>
<rect id="Rectangle_2" x="180.414" y="19.3916" width="3.11768" height="18.5675" fill="white"/>
<path id="Path_9" d="M190.457 37.9552V21.9354H193.025V19.3877H184.734V21.9354H187.305V37.9552H190.457Z" fill="white"/>
<rect id="Rectangle_3" x="194.234" y="19.3916" width="3.11764" height="18.5675" fill="white"/>
<path id="Path_10" d="M198.969 37.9552H206.412V35.4075H202.089V29.7648H205.177V27.2489H202.089V21.9354H206.412V19.3877H198.969V37.9552Z" fill="white"/>
<path id="Path_11" d="M211.69 26.1251C210.782 25.2463 210.217 24.6469 210.217 23.6023V23.2231C210.217 22.1809 210.816 21.6881 211.69 21.6881C212.68 21.6881 213.168 22.2081 213.168 23.2776V24.8921H216.018V23.3866C216.018 20.7004 214.785 19.1699 211.663 19.1699C208.625 19.1699 207.287 20.9502 207.287 23.2572V23.8907C207.287 26.0229 208.105 27.0924 209.885 28.8431L211.717 30.6824C212.68 31.5907 213.116 32.2401 213.116 33.3073V34.018C213.116 35.0058 212.68 35.662 211.69 35.662C210.623 35.662 210.158 35.0603 210.158 34.018V31.4748H207.258V33.9726C207.258 36.4091 208.489 38.1893 211.663 38.1893C214.837 38.1893 216.204 36.3727 216.204 33.8364V32.9281C216.204 30.8845 215.376 29.8354 213.684 28.1097L211.69 26.1251Z" fill="white"/>
<path id="Shape_4" fill-rule="evenodd" clip-rule="evenodd" d="M62.0703 65.2036L65.574 46.6406H69.1299L72.6608 65.2036H69.4569L68.8801 61.8089H65.5695L65.0222 65.2036H62.0703ZM67.2186 51.8702L65.9879 59.3181H68.4765L67.2481 51.8702H67.2186Z" fill="white"/>
<path id="Path_12" d="M80.6595 57.2902L77.292 46.6406H74.2266V65.2059H76.856V53.5367L80.521 65.2059H83.2594V46.6406H80.6595V57.2902Z" fill="white"/>
<path id="Shape_5" fill-rule="evenodd" clip-rule="evenodd" d="M85.3125 46.637H90.1309V46.6279C93.4711 46.6279 94.6451 48.7488 94.6451 51.6235V60.2226C94.6451 63.0723 93.4711 65.2068 90.1309 65.2068H85.3125V46.637ZM89.7488 62.6502C91.034 62.6502 91.5267 61.8827 91.5267 60.761V51.047C91.5267 49.9525 91.034 49.1873 89.7488 49.1873H88.4318V62.6502H89.7488Z" fill="white"/>
<path id="Path_13" d="M104.499 46.4209C101.213 46.4209 99.8438 48.5281 99.8438 51.4323V60.4152C99.8438 63.2877 101.206 65.4244 104.499 65.4244C107.791 65.4244 108.904 63.4511 108.904 60.7944V57.5927H106.056V61.017C106.056 62.1137 105.675 62.8335 104.555 62.8335C103.436 62.8335 102.966 62.041 102.966 60.917V50.9487C102.966 49.8269 103.434 49.0322 104.555 49.0322C105.677 49.0322 106.056 49.6884 106.056 50.8488V53.2852H108.904V51.094C108.904 48.3555 107.948 46.4413 104.499 46.4413" fill="white"/>
<path id="Shape_6" fill-rule="evenodd" clip-rule="evenodd" d="M110.891 51.4323C110.891 48.5281 112.312 46.4209 115.6 46.4209C118.911 46.4209 120.332 48.5281 120.332 51.4323V60.4152C120.332 63.2877 118.888 65.4244 115.6 65.4244C112.312 65.4244 110.891 63.2877 110.891 60.4152V51.4323ZM115.599 62.8222C116.719 62.8222 117.212 62.0297 117.212 60.9058V50.9374C117.212 49.8156 116.701 49.0209 115.599 49.0209C114.498 49.0209 114.01 49.8156 114.01 50.9374V60.9058C114.01 62.0297 114.48 62.8222 115.599 62.8222Z" fill="white"/>
<path id="Path_14" d="M128.081 57.1001H128.054L126.031 46.6367H122.391V65.2042H124.961V53.1559H125.016L127.343 65.2042H128.792L130.901 53.1559H130.983V65.2042H133.83V46.6367H129.888L128.081 57.1001Z" fill="white"/>
<path id="Path_15" d="M141.57 57.1001H141.543L139.517 46.6367H135.875V65.2042H138.45V53.1559H138.502L140.827 65.2042H142.281L144.386 53.1559H144.47V65.2042H147.315V46.6367H143.375L141.57 57.1001Z" fill="white"/>
<path id="Path_16" d="M155.553 60.9869C155.553 62.0837 155.119 62.8262 154.022 62.8262C152.925 62.8262 152.489 62.0837 152.489 60.9869V46.6406H149.367V60.6826C149.367 63.5619 150.73 65.4239 154.022 65.4239C157.201 65.4239 158.427 63.5619 158.427 60.6826V46.6406H155.553V60.9869Z" fill="white"/>
<path id="Path_17" d="M166.92 57.2902L163.548 46.6406H160.484V65.2059H163.114V53.5367L166.779 65.2059H169.515V46.6406H166.92V57.2902Z" fill="white"/>
<path id="Path_18" d="M16.2734 27.7265V35.7602H16.3393L21.7413 30.1561H21.8117V65.2021H29.5094V19.418H23.3626L16.2734 27.7265Z" fill="white"/>
<path id="Path_19" d="M33.8203 27.7265V35.7602H33.8884L39.2904 30.1561H39.3563V65.2021H47.0562V19.418H40.914L33.8203 27.7265Z" fill="white"/>
<rect id="Rectangle_4" x="171.586" y="46.6367" width="3.11996" height="18.5675" fill="white"/>
<path id="Path_20" d="M176.406 49.1844H178.979V65.2042H182.126V49.1844H184.699V46.6367H176.406V49.1844Z" fill="white"/>
<rect id="Rectangle_5" x="186.414" y="46.6367" width="3.12229" height="18.5675" fill="white"/>
<path id="Path_21" d="M191.617 65.2042H199.063V62.6588H194.735V57.0184H197.83V54.4979H194.735V49.1844H199.063V46.6367H191.617V65.2042Z" fill="white"/>
<path id="Path_22" d="M205.114 53.3757C204.206 52.497 203.636 51.8952 203.636 50.8575V50.4715C203.636 49.4293 204.238 48.9388 205.114 48.9388C206.1 48.9388 206.59 49.4588 206.59 50.5283V52.145H209.44V50.6373C209.44 47.9533 208.207 46.4229 205.087 46.4229C202.047 46.4229 200.707 48.2031 200.707 50.5101V51.1391C200.707 53.2735 201.529 54.343 203.309 56.0938L205.144 57.9308C206.1 58.839 206.538 59.4907 206.538 60.558V61.271C206.538 62.2564 206.1 62.9149 205.114 62.9149C204.047 62.9149 203.582 62.3132 203.582 61.271V58.7164H200.68V61.2142C200.68 63.6506 201.91 65.4309 205.087 65.4309C208.264 65.4309 209.629 63.6143 209.629 61.0802V60.1719C209.629 58.1283 208.807 57.0815 207.11 55.3535L205.114 53.3757Z" fill="white"/>
<g id="Group">
<g id="Group_2">
<path id="Path_23" d="M37.4642 173.26H71.611C71.943 173.262 72.2446 173.067 72.3787 172.763C72.5129 172.46 72.4539 172.105 72.2286 171.861L72.1809 171.811L55.187 149.827L55.0212 149.643C54.863 149.469 54.6387 149.37 54.4036 149.37C54.2006 149.374 54.0057 149.451 53.8541 149.586L53.7519 149.704L53.5907 149.883L37.0146 171.639L36.7602 171.95C36.6665 172.088 36.6166 172.251 36.6172 172.418C36.6172 172.642 36.7066 172.857 36.8655 173.015C37.0245 173.173 37.24 173.261 37.4642 173.26Z" fill="white"/>
<path id="Path_24" d="M71.515 176.368H37.291C37.0688 176.368 36.8557 176.456 36.6985 176.614C36.5414 176.771 36.4531 176.984 36.4531 177.206V203.978C36.4525 204.2 36.5405 204.414 36.6976 204.572C36.8547 204.73 37.0682 204.819 37.291 204.82H48.3062V187.969C48.3056 187.747 48.3937 187.533 48.5509 187.376C48.7082 187.219 48.9217 187.131 49.1441 187.131H59.3622C59.5846 187.131 59.7981 187.219 59.9554 187.376C60.1126 187.533 60.2007 187.747 60.2001 187.969V204.82H71.5082C71.731 204.819 71.9445 204.73 72.1016 204.572C72.2588 204.414 72.3467 204.2 72.3461 203.978V177.197C72.3412 176.74 71.9716 176.372 71.515 176.368Z" fill="white"/>
</g>
<path id="Shape_7" fill-rule="evenodd" clip-rule="evenodd" d="M189.787 169.347H155.915C155.698 169.343 155.488 169.426 155.333 169.578C155.177 169.729 155.088 169.936 155.086 170.153V204.356C155.093 204.807 155.464 205.167 155.915 205.16H189.787C190.004 205.164 190.213 205.081 190.369 204.931C190.525 204.78 190.614 204.573 190.618 204.356V170.153C190.615 169.936 190.526 169.728 190.37 169.577C190.214 169.425 190.004 169.343 189.787 169.347ZM171.255 191.677C171.252 191.894 171.164 192.101 171.009 192.252C170.854 192.404 170.645 192.488 170.428 192.485H160.308C160.09 192.488 159.881 192.405 159.725 192.253C159.569 192.102 159.48 191.894 159.477 191.677V185.528C159.479 185.31 159.568 185.103 159.724 184.951C159.88 184.799 160.09 184.716 160.308 184.719H170.428C170.645 184.716 170.854 184.8 171.01 184.952C171.165 185.104 171.253 185.311 171.255 185.528V191.677ZM171.009 180.886C171.164 180.734 171.252 180.527 171.255 180.31V174.157C171.252 173.941 171.163 173.734 171.008 173.584C170.853 173.433 170.644 173.35 170.428 173.353H160.308C159.857 173.347 159.485 173.706 159.477 174.157V180.31C159.48 180.528 159.569 180.735 159.725 180.887C159.881 181.038 160.09 181.122 160.308 181.119H170.428C170.645 181.121 170.854 181.037 171.009 180.886ZM186.718 191.677C186.716 191.895 186.626 192.102 186.47 192.254C186.314 192.406 186.104 192.489 185.887 192.485H175.771C175.553 192.489 175.343 192.406 175.187 192.254C175.031 192.102 174.942 191.895 174.94 191.677V185.528C174.942 185.31 175.031 185.103 175.187 184.951C175.343 184.799 175.553 184.716 175.771 184.719H185.887C186.104 184.716 186.314 184.799 186.47 184.951C186.626 185.103 186.716 185.31 186.718 185.528V191.677ZM186.47 180.887C186.626 180.736 186.716 180.528 186.718 180.31V174.157C186.714 173.94 186.625 173.734 186.469 173.583C186.313 173.432 186.104 173.349 185.887 173.353H175.771C175.554 173.349 175.345 173.432 175.189 173.583C175.033 173.734 174.943 173.94 174.94 174.157V180.31C174.942 180.528 175.031 180.736 175.187 180.887C175.343 181.039 175.553 181.122 175.771 181.119H185.887C186.104 181.122 186.314 181.039 186.47 180.887Z" fill="white"/>
<path id="Shape_8" fill-rule="evenodd" clip-rule="evenodd" d="M111.054 89.9538H77.9021C77.6871 89.9544 77.4812 90.0403 77.3296 90.1928C77.178 90.3452 77.0932 90.5517 77.0938 90.7667V204.052C77.095 204.498 77.4558 204.86 77.9021 204.863H111.054C111.502 204.861 111.866 204.5 111.87 204.052V90.7621C111.868 90.3128 111.504 89.9492 111.054 89.9492V89.9538ZM91.3346 191.957C91.3346 192.072 91.2887 192.183 91.2069 192.265C91.1252 192.347 91.0143 192.393 90.8986 192.393H83.31C83.0692 192.393 82.874 192.197 82.874 191.957V183.501C82.874 183.385 82.92 183.274 83.0018 183.193C83.0836 183.112 83.1945 183.066 83.31 183.067H90.8986C91.0141 183.066 91.125 183.112 91.2068 183.193C91.2886 183.274 91.3346 183.385 91.3346 183.501V191.957ZM91.2117 172.836C91.2934 172.755 91.3397 172.645 91.3403 172.53V164.076C91.3409 163.96 91.2952 163.849 91.2133 163.767C91.1314 163.685 91.0201 163.639 90.9043 163.64H83.3247C83.2089 163.639 83.0977 163.685 83.0158 163.767C82.9339 163.849 82.8882 163.96 82.8888 164.076V172.53C82.89 172.766 83.0797 172.957 83.3157 172.961H90.9043C91.0194 172.962 91.1299 172.917 91.2117 172.836ZM91.3346 153.109C91.3346 153.225 91.2887 153.336 91.2069 153.417C91.1252 153.499 91.0143 153.545 90.8986 153.545H83.31C83.0692 153.545 82.874 153.35 82.874 153.109V144.648C82.8752 144.408 83.0701 144.215 83.31 144.215H90.8986C91.1385 144.215 91.3334 144.408 91.3346 144.648V153.109ZM90.9044 134.119C91.1452 134.119 91.3404 133.924 91.3404 133.683V125.222C91.3398 125.108 91.2934 124.998 91.2116 124.917C91.1298 124.837 91.0192 124.792 90.9044 124.793H83.3248C83.21 124.792 83.0994 124.837 83.0176 124.917C82.9357 124.998 82.8894 125.108 82.8888 125.222V133.679C82.8863 133.918 83.0767 134.114 83.3157 134.119H90.9044ZM91.3346 114.261C91.3334 114.501 91.1385 114.695 90.8986 114.695H83.31C83.0701 114.695 82.8752 114.501 82.874 114.261V105.8C82.874 105.56 83.0692 105.364 83.31 105.364H90.8986C91.0143 105.364 91.1252 105.41 91.2069 105.492C91.2887 105.574 91.3346 105.685 91.3346 105.8V114.261ZM106.093 192.266C106.175 192.184 106.221 192.073 106.221 191.957V183.501C106.221 183.385 106.175 183.274 106.093 183.192C106.01 183.111 105.899 183.066 105.783 183.067H98.1967C98.0812 183.066 97.9703 183.112 97.8885 183.193C97.8067 183.274 97.7607 183.385 97.7607 183.501V191.957C97.7601 192.072 97.8058 192.184 97.8877 192.266C97.9696 192.347 98.0808 192.393 98.1967 192.393H105.783C105.899 192.393 106.011 192.347 106.093 192.266ZM106.221 172.53C106.222 172.646 106.176 172.757 106.093 172.839C106.011 172.921 105.899 172.967 105.783 172.966H98.1967C98.0807 172.967 97.9691 172.921 97.887 172.839C97.805 172.757 97.7595 172.646 97.7607 172.53V164.076C97.7595 163.96 97.805 163.848 97.887 163.766C97.9691 163.684 98.0807 163.639 98.1967 163.64H105.783C105.899 163.639 106.011 163.684 106.093 163.766C106.176 163.848 106.222 163.96 106.221 164.076V172.53ZM106.093 153.418C106.175 153.336 106.221 153.225 106.221 153.109V144.648C106.221 144.533 106.174 144.422 106.092 144.341C106.01 144.259 105.899 144.214 105.783 144.215H98.1967C98.0812 144.214 97.9703 144.26 97.8885 144.341C97.8067 144.422 97.7607 144.533 97.7607 144.648V153.109C97.7601 153.225 97.8058 153.336 97.8877 153.418C97.9696 153.5 98.0808 153.546 98.1967 153.545H105.783C105.899 153.546 106.011 153.5 106.093 153.418ZM106.221 133.683C106.221 133.799 106.175 133.91 106.093 133.992C106.011 134.074 105.899 134.12 105.783 134.119H98.1967C98.0808 134.12 97.9696 134.074 97.8877 133.992C97.8058 133.91 97.7601 133.799 97.7607 133.683V125.222C97.7613 125.108 97.8076 124.998 97.8894 124.917C97.9713 124.837 98.0818 124.792 98.1967 124.793H105.783C105.898 124.791 106.009 124.836 106.092 124.916C106.174 124.997 106.221 125.107 106.221 125.222V133.683ZM106.092 114.569C106.174 114.487 106.221 114.377 106.221 114.261V105.8C106.221 105.684 106.175 105.573 106.093 105.491C106.011 105.409 105.899 105.364 105.783 105.364H98.1967C98.0808 105.364 97.9696 105.41 97.8877 105.491C97.8058 105.573 97.7601 105.685 97.7607 105.8V114.261C97.7607 114.376 97.8067 114.487 97.8885 114.568C97.9703 114.65 98.0812 114.695 98.1967 114.695H105.783C105.899 114.695 106.01 114.65 106.092 114.569Z" fill="white"/>
<path id="Path_25" d="M190.59 165.905C190.59 166.282 190.285 166.587 189.909 166.587H155.814C155.438 166.587 155.133 166.282 155.133 165.905V159.093C155.133 158.717 155.438 158.412 155.814 158.412H189.909C190.285 158.412 190.59 158.717 190.59 159.093V165.905Z" fill="white"/>
<path id="Shape_9" fill-rule="evenodd" clip-rule="evenodd" d="M151.1 111.347C150.993 110.975 150.654 110.717 150.266 110.714C150.096 110.718 149.931 110.773 149.792 110.871L149.731 110.911L149.451 111.266L116.871 152.592L116.721 152.794C116.547 152.964 116.445 153.196 116.438 153.439V204.224C116.438 204.439 116.524 204.645 116.677 204.796C116.829 204.948 117.035 205.033 117.25 205.032H150.366C150.581 205.033 150.787 204.948 150.939 204.796C151.091 204.644 151.177 204.438 151.177 204.224V111.688C151.175 111.57 151.149 111.454 151.1 111.347ZM137.386 133.791L137.613 133.501C139.841 130.64 143.599 126.007 145.429 123.769L145.67 123.482C145.849 123.265 146.116 123.138 146.399 123.137C146.844 123.14 147.225 123.458 147.307 123.896V134.361C147.305 134.866 146.903 135.278 146.399 135.292H146.358H146.315H138.183H138.142H138.101C137.598 135.277 137.197 134.865 137.193 134.361C137.194 134.155 137.262 133.955 137.386 133.791ZM131.991 192.245C132.143 192.093 132.229 191.886 132.228 191.671L132.226 185.488C132.226 185.273 132.14 185.067 131.988 184.916C131.836 184.764 131.63 184.679 131.415 184.68H121.535C121.32 184.679 121.114 184.764 120.962 184.916C120.81 185.067 120.725 185.273 120.725 185.488V191.671C120.724 191.886 120.809 192.093 120.961 192.245C121.114 192.397 121.32 192.483 121.535 192.482H131.417C131.633 192.483 131.839 192.397 131.991 192.245ZM132.228 180.244C132.229 180.459 132.143 180.666 131.991 180.818C131.839 180.97 131.633 181.056 131.417 181.055H121.535C121.32 181.056 121.114 180.97 120.961 180.818C120.809 180.666 120.724 180.459 120.725 180.244V174.061C120.723 173.846 120.808 173.639 120.961 173.487C121.113 173.334 121.32 173.249 121.535 173.251H131.415C131.63 173.249 131.837 173.334 131.99 173.487C132.142 173.639 132.227 173.846 132.226 174.061L132.228 180.244ZM131.99 169.392C132.143 169.24 132.228 169.034 132.228 168.819L132.226 162.634C132.226 162.419 132.141 162.212 131.989 162.06C131.837 161.908 131.63 161.823 131.415 161.823H121.535C121.32 161.823 121.114 161.908 120.961 162.06C120.809 162.212 120.724 162.419 120.725 162.634V168.819C120.725 169.034 120.81 169.24 120.962 169.392C121.114 169.543 121.32 169.628 121.535 169.627H131.417C131.632 169.628 131.838 169.543 131.99 169.392ZM132.258 143.78V157.404C132.256 157.852 131.894 158.214 131.447 158.215H121.569C121.354 158.216 121.146 158.131 120.993 157.979C120.84 157.827 120.754 157.62 120.754 157.404V155.69C120.758 155.587 120.779 155.485 120.816 155.388C120.83 155.355 120.846 155.323 120.865 155.293C120.886 155.255 120.911 155.219 120.938 155.186C120.953 155.161 120.974 155.131 120.996 155.101C121.007 155.085 121.019 155.069 121.029 155.054C122.291 153.238 127.991 146.226 130.384 143.292L130.625 143.001C130.804 142.784 131.072 142.658 131.354 142.659C131.798 142.661 132.179 142.978 132.262 143.415L132.258 143.78ZM147.099 192.245C147.251 192.092 147.336 191.886 147.336 191.671V185.488C147.335 185.041 146.973 184.68 146.526 184.68H136.648C136.433 184.679 136.226 184.763 136.073 184.915C135.92 185.066 135.834 185.273 135.833 185.488V191.671C135.833 191.887 135.919 192.094 136.072 192.246C136.225 192.398 136.432 192.483 136.648 192.482H146.526C146.741 192.482 146.947 192.397 147.099 192.245ZM147.336 180.244C147.336 180.692 146.974 181.055 146.526 181.055H136.648C136.432 181.056 136.225 180.971 136.072 180.819C135.919 180.667 135.833 180.46 135.833 180.244V174.061C135.832 173.845 135.918 173.638 136.071 173.486C136.225 173.333 136.432 173.249 136.648 173.251H146.526C146.974 173.251 147.336 173.613 147.336 174.061V180.244ZM146.526 169.628C146.972 169.626 147.334 169.265 147.336 168.819V162.634C147.336 162.186 146.974 161.823 146.526 161.823H136.648C136.432 161.822 136.225 161.907 136.072 162.059C135.919 162.211 135.833 162.418 135.833 162.634V168.819C135.834 169.035 135.92 169.241 136.073 169.392C136.226 169.544 136.433 169.629 136.648 169.628H146.526ZM147.336 157.389C147.335 157.836 146.973 158.198 146.526 158.198H136.648C136.433 158.199 136.226 158.114 136.073 157.963C135.92 157.811 135.834 157.605 135.833 157.389V151.206C135.833 150.991 135.919 150.784 136.072 150.632C136.225 150.479 136.432 150.394 136.648 150.396H146.526C146.974 150.396 147.336 150.759 147.336 151.206V157.389ZM147.099 146.536C147.251 146.384 147.336 146.177 147.336 145.962V139.779C147.337 139.564 147.252 139.357 147.1 139.205C146.948 139.052 146.741 138.966 146.526 138.966H136.648C136.432 138.965 136.224 139.05 136.071 139.203C135.918 139.356 135.832 139.563 135.833 139.779V145.962C135.833 146.178 135.919 146.385 136.072 146.537C136.225 146.689 136.432 146.774 136.648 146.773H146.526C146.741 146.773 146.947 146.688 147.099 146.536Z" fill="white"/>
</g>
</g>
</svg>
