<svg width="228" height="228" viewBox="0 0 228 228" fill="none" xmlns="http://www.w3.org/2000/svg">
<g id="globalgoals_icons_color_goal_1">
<rect id="gg-base" width="227.07" height="227.07" fill="#E5243B"/>
<path id="Path" d="M67.9264 25.7014V37.366H65.2969V18.8008H68.3601L71.7321 29.4549V18.8008H74.3343V37.366H71.5958L67.9264 25.7014Z" fill="white"/>
<path id="Shape" fill-rule="evenodd" clip-rule="evenodd" d="M85.8368 32.577C85.8368 35.454 84.4176 37.5907 81.1001 37.5907C77.8144 37.5907 76.3906 35.454 76.3906 32.577V23.5964C76.3906 20.6899 77.7826 18.585 81.1001 18.585C84.4176 18.585 85.8368 20.6899 85.8368 23.5964V32.577ZM81.0994 21.1868C80.0026 21.1868 79.5099 21.9657 79.5099 23.101V33.0694C79.5099 34.1934 79.9776 34.9858 81.0994 34.9858C82.2211 34.9858 82.7161 34.2047 82.7161 33.0694V23.101C82.7161 21.977 82.1961 21.1868 81.0994 21.1868Z" fill="white"/>
<path id="Shape_2" fill-rule="evenodd" clip-rule="evenodd" d="M69.9223 58.5033H68.4191V64.8136H65.2969V46.2461H69.9223C73.074 46.2461 74.223 47.8083 74.223 50.4106V54.3139C74.223 56.9139 73.074 58.5033 69.9223 58.5033ZM69.5651 48.7833H68.4161V56.0949H69.5651C70.6437 56.0949 71.0978 55.5749 71.0978 54.5577V50.2887C71.0978 49.2783 70.6346 48.7833 69.5651 48.7833Z" fill="white"/>
<path id="Shape_3" fill-rule="evenodd" clip-rule="evenodd" d="M85.5421 60.0109C85.5421 62.8856 84.1207 65.0201 80.8032 65.0201C77.5175 65.0201 76.0938 62.8856 76.0938 60.0109V51.0258C76.0938 48.1238 77.4857 46.0166 80.8032 46.0166C84.1207 46.0166 85.5421 48.1238 85.5421 51.0258V60.0109ZM80.8025 48.6184C79.7035 48.6184 79.213 49.3996 79.213 50.5349V60.501C79.213 61.625 79.6785 62.4198 80.8025 62.4198C81.9265 62.4198 82.4215 61.625 82.4215 60.501V50.5349C82.4215 49.4109 81.9015 48.6184 80.8025 48.6184Z" fill="white"/>
<path id="Path_2" d="M93.5005 64.8019L97.0337 46.2344H94.1022L91.911 59.1864H91.8815L89.747 46.2344H86.5703L90.1035 64.8019H93.5005Z" fill="white"/>
<path id="Path_3" d="M106.034 62.2564H101.708V56.6115H104.801V54.0933H101.708V48.7821H106.034V46.2344H98.5859V64.8019H106.034V62.2564Z" fill="white"/>
<path id="Shape_4" fill-rule="evenodd" clip-rule="evenodd" d="M114.003 64.8023L111.074 56.2849L111.085 64.8136H107.961V46.2461H112.502C115.652 46.2461 116.803 47.8083 116.803 50.4106V52.7789C116.803 54.7771 116.086 55.9579 114.305 56.3666L117.291 64.8023H114.003ZM112.118 48.7907H111.08V54.5537H112.118C113.187 54.5537 113.653 54.0087 113.653 53.021V50.2961C113.653 49.2857 113.187 48.7907 112.118 48.7907Z" fill="white"/>
<path id="Path_4" d="M120.677 64.8019H123.826V48.7821H126.401V46.2344H118.102V48.7821H120.677V64.8019Z" fill="white"/>
<path id="Path_5" d="M131.084 64.8019H134.206V57.7377L137.655 46.2344H134.671L132.784 53.2713H132.757L130.866 46.2344H127.609L131.084 57.7377V64.8019Z" fill="white"/>
<path id="Path_6" d="M31.7123 29.8641H31.7804V64.9101H39.4758V19.126H33.329L26.2422 27.4322V35.4659H26.3103L31.7123 29.8641Z" fill="white"/>
<g id="Group">
<path id="Path_7" d="M174.891 108.332C174.893 104.864 177.706 102.053 181.174 102.054C184.643 102.054 187.455 104.865 187.457 108.334C187.458 111.802 184.649 114.616 181.18 114.62C177.708 114.62 174.892 111.805 174.891 108.332Z" fill="white"/>
<path id="Path_8" d="M188.514 117.042C192.826 117.44 196.125 121.06 196.12 125.391V142.825C196.12 144.171 195.03 145.262 193.684 145.262C192.338 145.262 191.247 144.171 191.247 142.825V127.85C191.247 127.287 191.086 126.529 190.06 126.529C189.349 126.529 189.202 127.28 189.177 127.759V172.615C189.177 174.55 187.608 176.118 185.673 176.118C183.738 176.118 182.169 174.55 182.169 172.615V146.767C182.169 146.481 182.065 145.741 181.175 145.741C180.282 145.741 180.173 146.481 180.164 146.767V172.615C180.197 173.886 179.537 175.076 178.44 175.721C177.344 176.367 175.984 176.367 174.887 175.721C173.791 175.076 173.131 173.886 173.164 172.615V127.759C173.141 127.28 172.986 126.529 172.283 126.529C171.252 126.529 171.095 127.287 171.095 127.85V142.825C171.039 144.129 169.965 145.157 168.661 145.157C167.356 145.157 166.283 144.129 166.227 142.825V125.391C166.225 121.057 169.528 117.436 173.845 117.042C173.995 117.019 174.147 117.006 174.299 117.003H188.025C188.186 117.005 188.346 117.018 188.504 117.042" fill="white"/>
</g>
<g id="Group_2">
<path id="Path_9" d="M137.489 111.634C137.488 109.227 136.037 107.057 133.813 106.137C131.588 105.216 129.028 105.727 127.327 107.43C125.626 109.134 125.118 111.694 126.041 113.917C126.963 116.141 129.135 117.59 131.542 117.588C134.828 117.585 137.49 114.92 137.489 111.634Z" fill="white"/>
<path id="Path_10" d="M119.551 125.116L114.603 141.238C114.603 141.238 113.722 144.19 116.227 144.928C118.732 145.666 119.476 142.785 119.476 142.785L123.466 129.34C123.466 129.34 123.693 128.304 124.461 128.529C125.228 128.754 124.946 129.857 124.946 129.857L118.003 155.062H124.461V173.107C124.506 174.787 125.881 176.125 127.561 176.125C129.242 176.125 130.616 174.787 130.662 173.107V155.042H132.424V173.087C132.469 174.768 133.845 176.107 135.527 176.107C137.208 176.107 138.584 174.768 138.63 173.087V155.042H145.085L138.146 129.837C138.146 129.837 137.853 128.749 138.63 128.522C139.406 128.295 139.624 129.333 139.624 129.333L143.614 142.778C143.614 142.778 144.372 145.659 146.861 144.921C149.35 144.183 148.485 141.238 148.485 141.238L143.537 125.116C143.537 125.116 141.77 120.459 137.86 120.459H125.239C121.325 120.459 119.563 125.116 119.563 125.116" fill="white"/>
</g>
<g id="Group_3">
<path id="Path_11" d="M101.833 111.634C101.831 108.347 99.1659 105.683 95.8789 105.685C92.592 105.686 89.9284 108.351 89.9297 111.638C89.9309 114.925 92.5965 117.589 95.8835 117.588C99.1699 117.585 101.833 114.92 101.833 111.634Z" fill="white"/>
<path id="Path_12" d="M83.8943 125.116L78.9487 141.238C78.9487 141.238 78.0631 144.19 80.5699 144.928C83.0768 145.666 83.8193 142.785 83.8193 142.785L87.8089 129.34C87.8089 129.34 88.0247 128.304 88.8035 128.529C89.5824 128.754 89.2872 129.857 89.2872 129.857L82.3456 155.062H88.8035V173.107C88.8035 174.82 90.1922 176.209 91.9053 176.209C93.6184 176.209 95.0071 174.82 95.0071 173.107V155.042H96.7691V173.087C96.8146 174.767 98.1894 176.105 99.8698 176.105C101.55 176.105 102.925 174.767 102.97 173.087V155.042H109.431L102.491 129.837C102.491 129.837 102.196 128.731 102.97 128.509C103.745 128.286 103.967 129.319 103.967 129.319L107.955 142.764C107.955 142.764 108.713 145.646 111.204 144.908C113.695 144.17 112.825 141.238 112.825 141.238L107.877 125.116C107.877 125.116 106.113 120.459 102.201 120.459H89.5824C85.6699 120.459 83.8943 125.116 83.8943 125.116Z" fill="white"/>
</g>
<g id="Group_4">
<path id="Path_13" d="M157.486 144.949C160.222 144.949 162.44 142.732 162.441 139.996C162.441 137.26 160.225 135.042 157.489 135.04C154.753 135.038 152.534 137.254 152.531 139.99C152.529 141.305 153.05 142.567 153.979 143.498C154.909 144.428 156.171 144.951 157.486 144.949Z" fill="white"/>
<path id="Path_14" d="M145.608 160.341C145.365 160.92 145.167 162.158 146.33 162.684C147.692 163.311 148.453 162.003 148.453 162.003L151.146 153.413C151.146 153.413 151.614 152.839 151.614 153.434V173.654H151.625C151.666 175.029 152.792 176.121 154.167 176.121C155.542 176.121 156.668 175.029 156.709 173.654V165.664C156.709 165.664 156.561 164.528 157.472 164.528C158.382 164.528 158.239 165.664 158.239 165.664V173.645C158.239 175.052 159.38 176.193 160.787 176.193C162.194 176.193 163.335 175.052 163.335 173.645V153.425C163.335 152.83 163.648 153.254 163.648 153.254L165.76 159.135C165.76 159.135 166.668 161.763 166.959 161.878C167.419 162.07 167.936 162.071 168.397 161.88C168.857 161.69 169.223 161.324 169.414 160.863C169.671 160.265 169.595 159.575 169.214 159.047L169.232 159.029C169.171 158.838 166.076 151.249 165.712 150.184C164.595 146.921 162.561 146.951 160.603 146.896C158.646 146.842 157.472 146.896 157.472 146.896C157.472 146.896 156.221 146.846 153.634 146.921C151.048 146.996 150.228 148.327 147.388 155.654C146.981 156.71 145.608 160.123 145.589 160.327L145.608 160.341Z" fill="white"/>
</g>
<g id="Group_5">
<path id="Path_15" d="M42.3823 114.62C44.926 114.623 47.2208 113.093 48.1961 110.744C49.1715 108.394 48.6352 105.689 46.8375 103.889C45.0398 102.089 42.3349 101.55 39.9846 102.523C37.6342 103.496 36.1016 105.789 36.1016 108.333C36.1053 111.801 38.914 114.613 42.3823 114.62Z" fill="white"/>
<path id="Path_16" d="M49.7776 117.011C49.6111 116.977 49.4428 116.953 49.2735 116.94H35.5357C35.3828 116.953 35.231 116.976 35.0816 117.011C30.7622 117.421 27.4658 121.053 27.4747 125.392V142.826C27.4687 143.723 27.9589 144.55 28.7486 144.975C28.7126 145.042 28.6852 145.114 28.6668 145.188L23.0809 174.775C23.0318 175.015 23.0818 175.265 23.2195 175.468C23.3571 175.67 23.5709 175.809 23.8121 175.852C23.8682 175.862 23.9252 175.868 23.9824 175.867C24.427 175.869 24.8094 175.553 24.8907 175.116L30.4721 145.529C30.4827 145.413 30.4711 145.297 30.438 145.186C31.5102 144.907 32.2548 143.934 32.2432 142.826V127.851C32.2432 127.288 32.3908 126.53 33.4172 126.53C34.1256 126.53 34.2868 127.281 34.2868 127.76V172.616C34.2868 174.56 35.8626 176.135 37.8064 176.135C39.7502 176.135 41.326 174.56 41.326 172.616V146.768C41.3212 146.492 41.4335 146.227 41.6352 146.038C41.8368 145.85 42.109 145.755 42.3842 145.778C43.2765 145.778 43.3674 146.482 43.3674 146.768V172.616C43.3674 174.56 44.9431 176.135 46.887 176.135C48.8308 176.135 50.4065 174.56 50.4065 172.616V127.76C50.4065 127.281 50.5746 126.53 51.2762 126.53C52.3094 126.53 52.4502 127.288 52.4502 127.851V142.826C52.4502 144.206 53.5685 145.324 54.9479 145.324C56.3274 145.324 57.4457 144.206 57.4457 142.826V125.392C57.425 121.042 54.1085 117.417 49.7776 117.011Z" fill="white"/>
</g>
<g id="Group_6">
<path id="Path_17" d="M74.0588 153.138L78.6569 144.793C78.6569 144.793 79.211 143.594 79.211 143.308C79.1981 142.508 78.6634 141.811 77.8942 141.591C77.125 141.371 76.3024 141.68 75.8685 142.352H75.8481C75.7027 142.477 73.3889 146.582 72.626 147.347C71.8199 148.163 71.0955 148.06 71.0955 148.06H65.0918C65.0918 148.06 64.3651 148.163 63.5613 147.347C62.7893 146.585 60.4868 142.472 60.3392 142.352L60.3233 142.366C59.8875 141.706 59.0752 141.404 58.3143 141.619C57.5535 141.833 57.0189 142.516 56.9922 143.306C57.0181 143.576 57.0776 143.842 57.1693 144.098L62.1535 153.138C62.3244 153.513 62.4237 153.918 62.4464 154.33V156.11L59.8306 165.761H62.4419V173.708H62.4759C62.4896 175.07 63.5978 176.167 64.9601 176.167C66.314 176.18 67.4224 175.094 67.4374 173.74V166.081C67.3647 165.991 67.3334 165.875 67.3511 165.761H68.8271C68.8406 165.868 68.8313 165.977 68.7998 166.081V173.74C68.7998 175.119 69.9181 176.238 71.2976 176.238C72.6771 176.238 73.7954 175.119 73.7954 173.74V165.761H76.359L73.7954 156.053V154.33C73.8149 153.92 73.904 153.517 74.0588 153.138Z" fill="white"/>
<path id="Path_18" d="M68.093 144.949C70.8291 144.951 73.0483 142.734 73.05 139.998C73.0516 137.262 70.8352 135.042 68.0991 135.04C65.363 135.038 63.1431 137.254 63.1406 139.99C63.1382 141.305 63.659 142.567 64.5881 143.497C65.5172 144.427 66.7782 144.95 68.093 144.949Z" fill="white"/>
</g>
</g>
</svg>
